<mxfile host="app.diagrams.net" modified="2024-02-21T00:50:47.102Z" agent="Mozilla/5.0 (Windows NT 10.0; Win64; x64) AppleWebKit/537.36 (KHTML, like Gecko) Chrome/121.0.0.0 Safari/537.36" etag="5kjmeU7qwkaPPk8EBhVm" version="23.1.5" type="github">
  <diagram id="cPgKdE3MeFNUrqj0Qx2y" name="Page-1">
    <mxGraphModel dx="3368" dy="3168" grid="1" gridSize="10" guides="1" tooltips="1" connect="1" arrows="1" fold="1" page="0" pageScale="1" pageWidth="850" pageHeight="1100" background="none" math="0" shadow="0">
      <root>
        <mxCell id="0" />
        <mxCell id="1" parent="0" />
        <mxCell id="node3" value="&lt;p style=&quot;margin:0px;margin-top:4px;text-align:center;&quot;&gt;&lt;b&gt;AdminActionResponse&lt;/b&gt;&lt;/p&gt;&lt;hr size=&quot;1&quot;/&gt;&lt;p style=&quot;margin:0 0 0 4px;line-height:1.6;&quot;&gt;- message: String&lt;br/&gt;- status: int&lt;/p&gt;&lt;hr size=&quot;1&quot;/&gt;&lt;p style=&quot;margin:0 0 0 4px;line-height:1.6;&quot;&gt;+ builder(): AdminActionResponseBuilder&lt;br/&gt;+ equals(Object): boolean&lt;br/&gt;+ getMessage(): String&lt;br/&gt;+ setMessage(String): void&lt;br/&gt;+ hashCode(): int&lt;br/&gt;+ toString(): String&lt;br/&gt;+ getStatus(): int&lt;br/&gt;# canEqual(Object): boolean&lt;br/&gt;+ setStatus(int): void&lt;/p&gt;" style="verticalAlign=top;align=left;overflow=fill;fontSize=14;fontFamily=Helvetica;html=1;rounded=0;shadow=0;comic=0;labelBackgroundColor=none;strokeWidth=1;" parent="1" vertex="1">
          <mxGeometry x="2090" y="2406" width="289" height="306" as="geometry" />
        </mxCell>
        <mxCell id="node17" value="&lt;p style=&quot;margin:0px;margin-top:4px;text-align:center;&quot;&gt;&lt;b&gt;AdminController&lt;/b&gt;&lt;/p&gt;&lt;hr size=&quot;1&quot;/&gt;&lt;p style=&quot;margin:0 0 0 4px;line-height:1.6;&quot;&gt;- service: AdminService&lt;/p&gt;&lt;hr size=&quot;1&quot;/&gt;&lt;p style=&quot;margin:0 0 0 4px;line-height:1.6;&quot;&gt;+ deleteUser(AdminDeleteRequest): ResponseEntity&amp;lt;AdminActionResponse&amp;gt;&lt;br/&gt;+ deletePost(AdminDeleteRequest): ResponseEntity&amp;lt;AdminActionResponse&amp;gt;&lt;/p&gt;" style="verticalAlign=top;align=left;overflow=fill;fontSize=14;fontFamily=Helvetica;html=1;rounded=0;shadow=0;comic=0;labelBackgroundColor=none;strokeWidth=1;" parent="1" vertex="1">
          <mxGeometry x="1794" y="6022" width="521" height="123" as="geometry" />
        </mxCell>
        <mxCell id="node39" value="&lt;p style=&quot;margin:0px;margin-top:4px;text-align:center;&quot;&gt;&lt;b&gt;AdminDeleteRequest&lt;/b&gt;&lt;/p&gt;&lt;hr size=&quot;1&quot;/&gt;&lt;p style=&quot;margin:0 0 0 4px;line-height:1.6;&quot;&gt;- targetId: int&lt;/p&gt;&lt;hr size=&quot;1&quot;/&gt;&lt;p style=&quot;margin:0 0 0 4px;line-height:1.6;&quot;&gt;+ builder(): AdminDeleteRequestBuilder&lt;br/&gt;+ equals(Object): boolean&lt;br/&gt;+ hashCode(): int&lt;br/&gt;+ setTargetId(int): void&lt;br/&gt;# canEqual(Object): boolean&lt;br/&gt;+ getTargetId(): int&lt;br/&gt;+ toString(): String&lt;/p&gt;" style="verticalAlign=top;align=left;overflow=fill;fontSize=14;fontFamily=Helvetica;html=1;rounded=0;shadow=0;comic=0;labelBackgroundColor=none;strokeWidth=1;" parent="1" vertex="1">
          <mxGeometry x="554" y="2442" width="280" height="234" as="geometry" />
        </mxCell>
        <mxCell id="node10" value="&lt;p style=&quot;margin:0px;margin-top:4px;text-align:center;&quot;&gt;&lt;b&gt;AdminService&lt;/b&gt;&lt;/p&gt;&lt;hr size=&quot;1&quot;/&gt;&lt;p style=&quot;margin:0 0 0 4px;line-height:1.6;&quot;&gt;- likeRepository: LikeRepository&lt;br/&gt;- commentRepository: CommentRepository&lt;br/&gt;- userRepository: UserRepository&lt;br/&gt;- postRepository: PostRepository&lt;/p&gt;&lt;hr size=&quot;1&quot;/&gt;&lt;p style=&quot;margin:0 0 0 4px;line-height:1.6;&quot;&gt;+ deleteUser(AdminDeleteRequest): AdminActionResponse&lt;br/&gt;+ deletePost(AdminDeleteRequest): AdminActionResponse&lt;/p&gt;" style="verticalAlign=top;align=left;overflow=fill;fontSize=14;fontFamily=Helvetica;html=1;rounded=0;shadow=0;comic=0;labelBackgroundColor=none;strokeWidth=1;" parent="1" vertex="1">
          <mxGeometry x="1852" y="5486" width="405" height="186" as="geometry" />
        </mxCell>
        <mxCell id="node37" value="&lt;p style=&quot;margin:0px;margin-top:4px;text-align:center;&quot;&gt;&lt;b&gt;ApplicationConfig&lt;/b&gt;&lt;/p&gt;&lt;hr size=&quot;1&quot;/&gt;&lt;p style=&quot;margin:0 0 0 4px;line-height:1.6;&quot;&gt;- userRepository: UserRepository&lt;/p&gt;&lt;hr size=&quot;1&quot;/&gt;&lt;p style=&quot;margin:0 0 0 4px;line-height:1.6;&quot;&gt;+ authenticationProvider(): AuthenticationProvider&lt;br/&gt;+ passwordEncoder(): BCryptPasswordEncoder&lt;br/&gt;+ authenticationManager(AuthenticationConfiguration): AuthenticationManager&lt;br/&gt;+ userDetailsService(): UserDetailsService&lt;/p&gt;" style="verticalAlign=top;align=left;overflow=fill;fontSize=14;fontFamily=Helvetica;html=1;rounded=0;shadow=0;comic=0;labelBackgroundColor=none;strokeWidth=1;" parent="1" vertex="1">
          <mxGeometry x="1189" y="5498" width="531" height="162" as="geometry" />
        </mxCell>
        <mxCell id="node12" value="&lt;p style=&quot;margin:0px;margin-top:4px;text-align:center;&quot;&gt;&lt;b&gt;AsyncConfig&lt;/b&gt;&lt;/p&gt;&lt;hr size=&quot;1&quot;/&gt;&lt;p style=&quot;margin:0 0 0 4px;line-height:1.6;&quot;&gt;+ getAsyncExecutor(): Executor?&lt;br/&gt;+ getAsyncUncaughtExceptionHandler(): AsyncUncaughtExceptionHandler?&lt;/p&gt;" style="verticalAlign=top;align=left;overflow=fill;fontSize=14;fontFamily=Helvetica;html=1;rounded=0;shadow=0;comic=0;labelBackgroundColor=none;strokeWidth=1;" parent="1" vertex="1">
          <mxGeometry x="779" y="5836" width="510" height="94" as="geometry" />
        </mxCell>
        <mxCell id="node28" value="&lt;p style=&quot;margin:0px;margin-top:4px;text-align:center;&quot;&gt;&lt;b&gt;AuthenticationController&lt;/b&gt;&lt;/p&gt;&lt;hr size=&quot;1&quot;/&gt;&lt;p style=&quot;margin:0 0 0 4px;line-height:1.6;&quot;&gt;- service: AuthenticationService&lt;/p&gt;&lt;hr size=&quot;1&quot;/&gt;&lt;p style=&quot;margin:0 0 0 4px;line-height:1.6;&quot;&gt;+ register(RegisterRequest): ResponseEntity&amp;lt;AuthenticationResponse&amp;gt;&lt;br/&gt;+ authenticate(AuthenticationRequest): ResponseEntity&amp;lt;AuthenticationResponse&amp;gt;&lt;br/&gt;+ googleLoginCallback(OAuth2User): ResponseEntity&amp;lt;AuthenticationResponse&amp;gt;&lt;/p&gt;" style="verticalAlign=top;align=left;overflow=fill;fontSize=14;fontFamily=Helvetica;html=1;rounded=0;shadow=0;comic=0;labelBackgroundColor=none;strokeWidth=1;" parent="1" vertex="1">
          <mxGeometry x="1057" y="6010" width="555" height="149" as="geometry" />
        </mxCell>
        <mxCell id="node8" value="&lt;p style=&quot;margin:0px;margin-top:4px;text-align:center;&quot;&gt;&lt;b&gt;AuthenticationRequest&lt;/b&gt;&lt;/p&gt;&lt;hr size=&quot;1&quot;/&gt;&lt;p style=&quot;margin:0 0 0 4px;line-height:1.6;&quot;&gt;- email: String&lt;br/&gt;- password: String&lt;/p&gt;&lt;hr size=&quot;1&quot;/&gt;&lt;p style=&quot;margin:0 0 0 4px;line-height:1.6;&quot;&gt;+ getPassword(): String&lt;br/&gt;+ builder(): AuthenticationRequestBuilder&lt;br/&gt;+ hashCode(): int&lt;br/&gt;+ equals(Object): boolean&lt;br/&gt;+ setEmail(String): void&lt;br/&gt;+ setPassword(String): void&lt;br/&gt;+ toString(): String&lt;br/&gt;+ getEmail(): String&lt;br/&gt;# canEqual(Object): boolean&lt;/p&gt;" style="verticalAlign=top;align=left;overflow=fill;fontSize=14;fontFamily=Helvetica;html=1;rounded=0;shadow=0;comic=0;labelBackgroundColor=none;strokeWidth=1;" parent="1" vertex="1">
          <mxGeometry x="1728" y="2406" width="292" height="306" as="geometry" />
        </mxCell>
        <mxCell id="node4" value="&lt;p style=&quot;margin:0px;margin-top:4px;text-align:center;&quot;&gt;&lt;b&gt;AuthenticationResponse&lt;/b&gt;&lt;/p&gt;&lt;hr size=&quot;1&quot;/&gt;&lt;p style=&quot;margin:0 0 0 4px;line-height:1.6;&quot;&gt;- token: String&lt;/p&gt;&lt;hr size=&quot;1&quot;/&gt;&lt;p style=&quot;margin:0 0 0 4px;line-height:1.6;&quot;&gt;# canEqual(Object): boolean&lt;br/&gt;+ toString(): String&lt;br/&gt;+ getToken(): String&lt;br/&gt;+ hashCode(): int&lt;br/&gt;+ setToken(String): void&lt;br/&gt;+ builder(): AuthenticationResponseBuilder&lt;br/&gt;+ equals(Object): boolean&lt;/p&gt;" style="verticalAlign=top;align=left;overflow=fill;fontSize=14;fontFamily=Helvetica;html=1;rounded=0;shadow=0;comic=0;labelBackgroundColor=none;strokeWidth=1;" parent="1" vertex="1">
          <mxGeometry x="1903" y="3002" width="302" height="234" as="geometry" />
        </mxCell>
        <mxCell id="node35" value="&lt;p style=&quot;margin:0px;margin-top:4px;text-align:center;&quot;&gt;&lt;b&gt;AuthenticationService&lt;/b&gt;&lt;/p&gt;&lt;hr size=&quot;1&quot;/&gt;&lt;p style=&quot;margin:0 0 0 4px;line-height:1.6;&quot;&gt;- userRepository: UserRepository&lt;br/&gt;- jwtService: JwtService&lt;br/&gt;- passwordEncoder: PasswordEncoder&lt;br/&gt;- authenticationManager: AuthenticationManager&lt;br/&gt;- senderService: EmailSenderService&lt;/p&gt;&lt;hr size=&quot;1&quot;/&gt;&lt;p style=&quot;margin:0 0 0 4px;line-height:1.6;&quot;&gt;- handleOAuthRegistration(RegisterRequest): User&lt;br/&gt;+ register(RegisterRequest): AuthenticationResponse&lt;br/&gt;+ authenticate(AuthenticationRequest): AuthenticationResponse&lt;/p&gt;" style="verticalAlign=top;align=left;overflow=fill;fontSize=14;fontFamily=Helvetica;html=1;rounded=0;shadow=0;comic=0;labelBackgroundColor=none;strokeWidth=1;" parent="1" vertex="1">
          <mxGeometry x="675" y="5462" width="439" height="234" as="geometry" />
        </mxCell>
        <mxCell id="node38" value="&lt;p style=&quot;margin:0px;margin-top:4px;text-align:center;&quot;&gt;&lt;i&gt;&amp;lt;&amp;lt;interface&amp;gt;&amp;gt;&lt;/i&gt;&lt;br/&gt;&lt;b&gt;CommentRepository&lt;/b&gt;&lt;/p&gt;&lt;hr size=&quot;1&quot;/&gt;" style="verticalAlign=top;align=left;overflow=fill;fontSize=14;fontFamily=Helvetica;html=1;rounded=0;shadow=0;comic=0;labelBackgroundColor=none;strokeWidth=1;" parent="1" vertex="1">
          <mxGeometry x="2010" y="4385" width="208" height="35" as="geometry" />
        </mxCell>
        <mxCell id="node24" value="&lt;p style=&quot;margin:0px;margin-top:4px;text-align:center;&quot;&gt;&lt;b&gt;EmailSenderService&lt;/b&gt;&lt;/p&gt;&lt;hr size=&quot;1&quot;/&gt;&lt;p style=&quot;margin:0 0 0 4px;line-height:1.6;&quot;&gt;- mailSender: JavaMailSender&lt;br/&gt;- freemarkerConfig: Configuration&lt;/p&gt;&lt;hr size=&quot;1&quot;/&gt;&lt;p style=&quot;margin:0 0 0 4px;line-height:1.6;&quot;&gt;+ sendEmail(User, String, String, String, String): void&lt;br/&gt;- getFreeMarkerTemplateContent(Map&amp;lt;String, Object&amp;gt;): String&lt;/p&gt;" style="verticalAlign=top;align=left;overflow=fill;fontSize=14;fontFamily=Helvetica;html=1;rounded=0;shadow=0;comic=0;labelBackgroundColor=none;strokeWidth=1;" parent="1" vertex="1">
          <mxGeometry x="698" y="4330" width="433" height="149" as="geometry" />
        </mxCell>
        <mxCell id="node23" value="&lt;p style=&quot;margin:0px;margin-top:4px;text-align:center;&quot;&gt;&lt;i&gt;&amp;lt;&amp;lt;interface&amp;gt;&amp;gt;&lt;/i&gt;&lt;br/&gt;&lt;b&gt;FollowerRepository&lt;/b&gt;&lt;/p&gt;&lt;hr size=&quot;1&quot;/&gt;" style="verticalAlign=top;align=left;overflow=fill;fontSize=14;fontFamily=Helvetica;html=1;rounded=0;shadow=0;comic=0;labelBackgroundColor=none;strokeWidth=1;" parent="1" vertex="1">
          <mxGeometry x="95" y="3825" width="199" height="35" as="geometry" />
        </mxCell>
        <mxCell id="node44" value="&lt;p style=&quot;margin:0px;margin-top:4px;text-align:center;&quot;&gt;&lt;b&gt;JwtAuthFilter&lt;/b&gt;&lt;/p&gt;&lt;hr size=&quot;1&quot;/&gt;&lt;p style=&quot;margin:0 0 0 4px;line-height:1.6;&quot;&gt;- userDetailsService: UserDetailsService&lt;br/&gt;- OBJECT_MAPPER: ObjectMapper&lt;br/&gt;- jwtService: JwtService&lt;/p&gt;&lt;hr size=&quot;1&quot;/&gt;&lt;p style=&quot;margin:0 0 0 4px;line-height:1.6;&quot;&gt;# doFilterInternal(HttpServletRequest, HttpServletResponse, FilterChain): void&lt;/p&gt;" style="verticalAlign=top;align=left;overflow=fill;fontSize=14;fontFamily=Helvetica;html=1;rounded=0;shadow=0;comic=0;labelBackgroundColor=none;strokeWidth=1;" parent="1" vertex="1">
          <mxGeometry x="150" y="5510" width="449" height="149" as="geometry" />
        </mxCell>
        <mxCell id="node31" value="&lt;p style=&quot;margin:0px;margin-top:4px;text-align:center;&quot;&gt;&lt;b&gt;JwtService&lt;/b&gt;&lt;/p&gt;&lt;hr size=&quot;1&quot;/&gt;&lt;p style=&quot;margin:0 0 0 4px;line-height:1.6;&quot;&gt;- AUTH_HEADER: String&lt;br/&gt;- SECRET_KEY: Key&lt;br/&gt;- BEARER_PREFIX: String&lt;/p&gt;&lt;hr size=&quot;1&quot;/&gt;&lt;p style=&quot;margin:0 0 0 4px;line-height:1.6;&quot;&gt;+ fetchClaims(String, Function&amp;lt;Claims, T&amp;gt;): T&lt;br/&gt;+ fetchEmail(String): String&lt;br/&gt;+ isTokenExpired(String): boolean&lt;br/&gt;+ generateToken(Map&amp;lt;String, Objects&amp;gt;, UserDetails): String&lt;br/&gt;+ isValidToken(String, UserDetails): boolean&lt;br/&gt;+ fetchClaims(String): Claims&lt;br/&gt;+ generateToken(UserDetails): String&lt;br/&gt;+ extractToken(HttpServletRequest): String&lt;/p&gt;" style="verticalAlign=top;align=left;overflow=fill;fontSize=14;fontFamily=Helvetica;html=1;rounded=0;shadow=0;comic=0;labelBackgroundColor=none;strokeWidth=1;" parent="1" vertex="1">
          <mxGeometry x="228" y="4246" width="413" height="306" as="geometry" />
        </mxCell>
        <mxCell id="node5" value="&lt;p style=&quot;margin:0px;margin-top:4px;text-align:center;&quot;&gt;&lt;i&gt;&amp;lt;&amp;lt;interface&amp;gt;&amp;gt;&lt;/i&gt;&lt;br/&gt;&lt;b&gt;LikeRepository&lt;/b&gt;&lt;/p&gt;&lt;hr size=&quot;1&quot;/&gt;" style="verticalAlign=top;align=left;overflow=fill;fontSize=14;fontFamily=Helvetica;html=1;rounded=0;shadow=0;comic=0;labelBackgroundColor=none;strokeWidth=1;" parent="1" vertex="1">
          <mxGeometry x="1912" y="3825" width="164" height="35" as="geometry" />
        </mxCell>
        <mxCell id="node32" value="&lt;p style=&quot;margin:0px;margin-top:4px;text-align:center;&quot;&gt;&lt;b&gt;PostComment&lt;/b&gt;&lt;/p&gt;&lt;hr size=&quot;1&quot;/&gt;&lt;p style=&quot;margin:0 0 0 4px;line-height:1.6;&quot;&gt;- content: String&lt;br/&gt;- post: UserPost&lt;br/&gt;- commentId: Long&lt;br/&gt;- timestamp: LocalDateTime&lt;br/&gt;- user: User&lt;/p&gt;&lt;hr size=&quot;1&quot;/&gt;&lt;p style=&quot;margin:0 0 0 4px;line-height:1.6;&quot;&gt;+ setCommentId(Long): void&lt;br/&gt;+ setContent(String): void&lt;br/&gt;+ hashCode(): int&lt;br/&gt;+ getTimestamp(): LocalDateTime&lt;br/&gt;+ setUser(User): void&lt;br/&gt;+ setPost(UserPost): void&lt;br/&gt;+ setTimestamp(LocalDateTime): void&lt;br/&gt;# canEqual(Object): boolean&lt;br/&gt;+ getUser(): User&lt;br/&gt;+ getPost(): UserPost&lt;br/&gt;+ getContent(): String&lt;br/&gt;+ equals(Object): boolean&lt;br/&gt;+ getCommentId(): Long&lt;br/&gt;+ builder(): PostCommentBuilder&lt;br/&gt;+ toString(): String&lt;/p&gt;" style="verticalAlign=top;align=left;overflow=fill;fontSize=14;fontFamily=Helvetica;html=1;rounded=0;shadow=0;comic=0;labelBackgroundColor=none;strokeWidth=1;" parent="1" vertex="1">
          <mxGeometry x="1241" y="4138" width="267" height="522" as="geometry" />
        </mxCell>
        <mxCell id="node0" value="&lt;p style=&quot;margin:0px;margin-top:4px;text-align:center;&quot;&gt;&lt;b&gt;PostCommentResponse&lt;/b&gt;&lt;/p&gt;&lt;hr size=&quot;1&quot;/&gt;&lt;p style=&quot;margin:0 0 0 4px;line-height:1.6;&quot;&gt;- commenterFirstName: String&lt;br/&gt;- commenterLastName: String&lt;br/&gt;- timestamp: LocalDateTime&lt;br/&gt;- content: String&lt;br/&gt;- commentId: Long&lt;/p&gt;&lt;hr size=&quot;1&quot;/&gt;&lt;p style=&quot;margin:0 0 0 4px;line-height:1.6;&quot;&gt;+ getCommenterFirstName(): String&lt;br/&gt;+ equals(Object): boolean&lt;br/&gt;+ getCommentId(): Long&lt;br/&gt;+ getContent(): String&lt;br/&gt;+ getCommenterLastName(): String&lt;br/&gt;+ setCommenterLastName(String): void&lt;br/&gt;# canEqual(Object): boolean&lt;br/&gt;+ getTimestamp(): LocalDateTime&lt;br/&gt;+ setCommentId(Long): void&lt;br/&gt;+ hashCode(): int&lt;br/&gt;+ setContent(String): void&lt;br/&gt;+ toString(): String&lt;br/&gt;+ setTimestamp(LocalDateTime): void&lt;br/&gt;+ setCommenterFirstName(String): void&lt;br/&gt;+ builder(): PostCommentResponseBuilder&lt;/p&gt;" style="verticalAlign=top;align=left;overflow=fill;fontSize=14;fontFamily=Helvetica;html=1;rounded=0;shadow=0;comic=0;labelBackgroundColor=none;strokeWidth=1;" parent="1" vertex="1">
          <mxGeometry x="2145" y="3578" width="298" height="522" as="geometry" />
        </mxCell>
        <mxCell id="node34" value="&lt;p style=&quot;margin:0px;margin-top:4px;text-align:center;&quot;&gt;&lt;b&gt;PostCommentResponse&lt;/b&gt;&lt;/p&gt;&lt;hr size=&quot;1&quot;/&gt;&lt;p style=&quot;margin:0 0 0 4px;line-height:1.6;&quot;&gt;- content: String&lt;br/&gt;- commenterLastName: String&lt;br/&gt;- commentId: Long&lt;br/&gt;- commenterFirstName: String&lt;br/&gt;- timestamp: LocalDateTime&lt;/p&gt;&lt;hr size=&quot;1&quot;/&gt;&lt;p style=&quot;margin:0 0 0 4px;line-height:1.6;&quot;&gt;+ setCommentId(Long): void&lt;br/&gt;+ hashCode(): int&lt;br/&gt;+ setCommenterLastName(String): void&lt;br/&gt;+ getContent(): String&lt;br/&gt;+ setContent(String): void&lt;br/&gt;+ setCommenterFirstName(String): void&lt;br/&gt;+ setTimestamp(LocalDateTime): void&lt;br/&gt;# canEqual(Object): boolean&lt;br/&gt;+ getCommenterLastName(): String&lt;br/&gt;+ toString(): String&lt;br/&gt;+ getCommentId(): Long&lt;br/&gt;+ builder(): PostCommentResponseBuilder&lt;br/&gt;+ getCommenterFirstName(): String&lt;br/&gt;+ equals(Object): boolean&lt;br/&gt;+ getTimestamp(): LocalDateTime&lt;/p&gt;" style="verticalAlign=top;align=left;overflow=fill;fontSize=14;fontFamily=Helvetica;html=1;rounded=0;shadow=0;comic=0;labelBackgroundColor=none;strokeWidth=1;" parent="1" vertex="1">
          <mxGeometry x="-135" y="4138" width="298" height="522" as="geometry" />
        </mxCell>
        <mxCell id="node16" value="&lt;p style=&quot;margin:0px;margin-top:4px;text-align:center;&quot;&gt;&lt;b&gt;PostController&lt;/b&gt;&lt;/p&gt;&lt;hr size=&quot;1&quot;/&gt;&lt;p style=&quot;margin:0 0 0 4px;line-height:1.6;&quot;&gt;- service: PostService&lt;/p&gt;&lt;hr size=&quot;1&quot;/&gt;&lt;p style=&quot;margin:0 0 0 4px;line-height:1.6;&quot;&gt;+ getRecommendedPosts(): ResponseEntity&amp;lt;ResponseEntity&amp;lt;Page&amp;lt;RecommendedPostResponse&amp;gt;&amp;gt;&amp;gt;&lt;br/&gt;+ likePost(UserRequest): ResponseEntity&amp;lt;UserActionResponse&amp;gt;&lt;br/&gt;+ deletePost(UserRequest): ResponseEntity&amp;lt;UserActionResponse&amp;gt;&lt;br/&gt;+ createComment(UserPostRequest): ResponseEntity&amp;lt;UserActionResponse&amp;gt;&lt;br/&gt;+ createPost(UserPostRequest): ResponseEntity&amp;lt;UserActionResponse&amp;gt;&lt;/p&gt;" style="verticalAlign=top;align=left;overflow=fill;fontSize=14;fontFamily=Helvetica;html=1;rounded=0;shadow=0;comic=0;labelBackgroundColor=none;strokeWidth=1;" parent="1" vertex="1">
          <mxGeometry x="1357" y="5786" width="675" height="186" as="geometry" />
        </mxCell>
        <mxCell id="node6" value="&lt;p style=&quot;margin:0px;margin-top:4px;text-align:center;&quot;&gt;&lt;b&gt;PostLike&lt;/b&gt;&lt;/p&gt;&lt;hr size=&quot;1&quot;/&gt;&lt;p style=&quot;margin:0 0 0 4px;line-height:1.6;&quot;&gt;- post: UserPost&lt;br/&gt;- user: User&lt;br/&gt;- likeId: Long&lt;br/&gt;- timestamp: LocalDateTime&lt;/p&gt;&lt;hr size=&quot;1&quot;/&gt;&lt;p style=&quot;margin:0 0 0 4px;line-height:1.6;&quot;&gt;+ toString(): String&lt;br/&gt;+ equals(Object): boolean&lt;br/&gt;+ builder(): PostLikeBuilder&lt;br/&gt;+ getUser(): User&lt;br/&gt;+ setPost(UserPost): void&lt;br/&gt;+ hashCode(): int&lt;br/&gt;+ getTimestamp(): LocalDateTime&lt;br/&gt;+ setLikeId(Long): void&lt;br/&gt;+ setTimestamp(LocalDateTime): void&lt;br/&gt;+ setUser(User): void&lt;br/&gt;+ getPost(): UserPost&lt;br/&gt;+ getLikeId(): Long&lt;br/&gt;# canEqual(Object): boolean&lt;/p&gt;" style="verticalAlign=top;align=left;overflow=fill;fontSize=14;fontFamily=Helvetica;html=1;rounded=0;shadow=0;comic=0;labelBackgroundColor=none;strokeWidth=1;" parent="1" vertex="1">
          <mxGeometry x="1481" y="1534" width="267" height="450" as="geometry" />
        </mxCell>
        <mxCell id="node27" value="&lt;p style=&quot;margin:0px;margin-top:4px;text-align:center;&quot;&gt;&lt;b&gt;PostLikeResponse&lt;/b&gt;&lt;/p&gt;&lt;hr size=&quot;1&quot;/&gt;&lt;p style=&quot;margin:0 0 0 4px;line-height:1.6;&quot;&gt;- likerLastName: String&lt;br/&gt;- likeID: Long&lt;br/&gt;- likerFirstName: String&lt;br/&gt;- timestamp: LocalDateTime&lt;/p&gt;&lt;hr size=&quot;1&quot;/&gt;&lt;p style=&quot;margin:0 0 0 4px;line-height:1.6;&quot;&gt;+ setLikerFirstName(String): void&lt;br/&gt;+ getTimestamp(): LocalDateTime&lt;br/&gt;+ equals(Object): boolean&lt;br/&gt;+ setLikerLastName(String): void&lt;br/&gt;+ getLikerFirstName(): String&lt;br/&gt;+ hashCode(): int&lt;br/&gt;+ getLikeID(): Long&lt;br/&gt;+ setLikeID(Long): void&lt;br/&gt;# canEqual(Object): boolean&lt;br/&gt;+ getLikerLastName(): String&lt;br/&gt;+ builder(): PostLikeResponseBuilder&lt;br/&gt;+ setTimestamp(LocalDateTime): void&lt;br/&gt;+ toString(): String&lt;/p&gt;" style="verticalAlign=top;align=left;overflow=fill;fontSize=14;fontFamily=Helvetica;html=1;rounded=0;shadow=0;comic=0;labelBackgroundColor=none;strokeWidth=1;" parent="1" vertex="1">
          <mxGeometry x="541" y="3614" width="267" height="450" as="geometry" />
        </mxCell>
        <mxCell id="node29" value="&lt;p style=&quot;margin:0px;margin-top:4px;text-align:center;&quot;&gt;&lt;b&gt;PostLikeResponse&lt;/b&gt;&lt;/p&gt;&lt;hr size=&quot;1&quot;/&gt;&lt;p style=&quot;margin:0 0 0 4px;line-height:1.6;&quot;&gt;- likerLastName: String&lt;br/&gt;- timestamp: LocalDateTime&lt;br/&gt;- likeID: Long&lt;br/&gt;- likerFirstName: String&lt;/p&gt;&lt;hr size=&quot;1&quot;/&gt;&lt;p style=&quot;margin:0 0 0 4px;line-height:1.6;&quot;&gt;+ setLikerFirstName(String): void&lt;br/&gt;+ getLikeID(): Long&lt;br/&gt;+ builder(): PostLikeResponseBuilder&lt;br/&gt;+ hashCode(): int&lt;br/&gt;+ getLikerFirstName(): String&lt;br/&gt;+ getLikerLastName(): String&lt;br/&gt;# canEqual(Object): boolean&lt;br/&gt;+ getTimestamp(): LocalDateTime&lt;br/&gt;+ setLikeID(Long): void&lt;br/&gt;+ setLikerLastName(String): void&lt;br/&gt;+ setTimestamp(LocalDateTime): void&lt;br/&gt;+ equals(Object): boolean&lt;br/&gt;+ toString(): String&lt;/p&gt;" style="verticalAlign=top;align=left;overflow=fill;fontSize=14;fontFamily=Helvetica;html=1;rounded=0;shadow=0;comic=0;labelBackgroundColor=none;strokeWidth=1;" parent="1" vertex="1">
          <mxGeometry x="721" y="2894" width="267" height="450" as="geometry" />
        </mxCell>
        <mxCell id="node36" value="&lt;p style=&quot;margin:0px;margin-top:4px;text-align:center;&quot;&gt;&lt;i&gt;&amp;lt;&amp;lt;interface&amp;gt;&amp;gt;&lt;/i&gt;&lt;br/&gt;&lt;b&gt;PostRepository&lt;/b&gt;&lt;/p&gt;&lt;hr size=&quot;1&quot;/&gt;&lt;p style=&quot;margin:0 0 0 4px;line-height:1.6;&quot;&gt;+ findAll(Pageable): Page&amp;lt;UserPost&amp;gt;&lt;br/&gt;+ deleteByUser(User): void&lt;br/&gt;+ getLikeCount(Integer): Integer&lt;/p&gt;" style="verticalAlign=top;align=left;overflow=fill;fontSize=14;fontFamily=Helvetica;html=1;rounded=0;shadow=0;comic=0;labelBackgroundColor=none;strokeWidth=1;" parent="1" vertex="1">
          <mxGeometry x="1702" y="4344" width="265" height="139" as="geometry" />
        </mxCell>
        <mxCell id="node25" value="&lt;p style=&quot;margin:0px;margin-top:4px;text-align:center;&quot;&gt;&lt;b&gt;PostService&lt;/b&gt;&lt;/p&gt;&lt;hr size=&quot;1&quot;/&gt;&lt;p style=&quot;margin:0 0 0 4px;line-height:1.6;&quot;&gt;- likeRepository: LikeRepository&lt;br/&gt;- commentRepository: CommentRepository&lt;br/&gt;- jwtService: JwtService&lt;br/&gt;- userRepository: UserRepository&lt;br/&gt;- postRepository: PostRepository&lt;/p&gt;&lt;hr size=&quot;1&quot;/&gt;&lt;p style=&quot;margin:0 0 0 4px;line-height:1.6;&quot;&gt;+ getRecommendedPosts(): ResponseEntity&amp;lt;Page&amp;lt;RecommendedPostResponse&amp;gt;&amp;gt;&lt;br/&gt;+ createComment(HttpServletRequest, UserPostRequest): UserActionResponse&lt;br/&gt;+ deletePost(HttpServletRequest, UserRequest): UserActionResponse&lt;br/&gt;+ createPost(HttpServletRequest, UserPostRequest): UserActionResponse&lt;br/&gt;+ likePost(HttpServletRequest, UserRequest): UserActionResponse&lt;br/&gt;- mapToSimplifiedPostResponse(UserPost): RecommendedPostResponse&lt;/p&gt;" style="verticalAlign=top;align=left;overflow=fill;fontSize=14;fontFamily=Helvetica;html=1;rounded=0;shadow=0;comic=0;labelBackgroundColor=none;strokeWidth=1;" parent="1" vertex="1">
          <mxGeometry x="1475" y="4946" width="559" height="306" as="geometry" />
        </mxCell>
        <mxCell id="node11" value="&lt;p style=&quot;margin:0px;margin-top:4px;text-align:center;&quot;&gt;&lt;b&gt;RecommendedPostResponse&lt;/b&gt;&lt;/p&gt;&lt;hr size=&quot;1&quot;/&gt;&lt;p style=&quot;margin:0 0 0 4px;line-height:1.6;&quot;&gt;- timestamp: LocalDateTime&lt;br/&gt;- postersFirstName: String&lt;br/&gt;- comments: List&amp;lt;PostCommentResponse&amp;gt;&lt;br/&gt;- postersLastName: String&lt;br/&gt;- likeCount: int&lt;br/&gt;- id: Integer&lt;br/&gt;- content: String&lt;/p&gt;&lt;hr size=&quot;1&quot;/&gt;&lt;p style=&quot;margin:0 0 0 4px;line-height:1.6;&quot;&gt;+ setPostersFirstName(String): void&lt;br/&gt;+ setContent(String): void&lt;br/&gt;+ getId(): Integer&lt;br/&gt;+ getPostersFirstName(): String&lt;br/&gt;+ setLikeCount(int): void&lt;br/&gt;# canEqual(Object): boolean&lt;br/&gt;+ hashCode(): int&lt;br/&gt;+ setComments(List&amp;lt;PostCommentResponse&amp;gt;): void&lt;br/&gt;+ equals(Object): boolean&lt;br/&gt;+ getComments(): List&amp;lt;PostCommentResponse&amp;gt;&lt;br/&gt;+ getLikeCount(): int&lt;br/&gt;+ getPostersLastName(): String&lt;br/&gt;+ setId(Integer): void&lt;br/&gt;+ builder(): RecommendedPostResponseBuilder&lt;br/&gt;+ getContent(): String&lt;br/&gt;+ setPostersLastName(String): void&lt;br/&gt;+ toString(): String&lt;br/&gt;+ getTimestamp(): LocalDateTime&lt;br/&gt;+ setTimestamp(LocalDateTime): void&lt;/p&gt;" style="verticalAlign=top;align=left;overflow=fill;fontSize=14;fontFamily=Helvetica;html=1;rounded=0;shadow=0;comic=0;labelBackgroundColor=none;strokeWidth=1;" parent="1" vertex="1">
          <mxGeometry x="1032" y="2786" width="365" height="666" as="geometry" />
        </mxCell>
        <mxCell id="node43" value="&lt;p style=&quot;margin:0px;margin-top:4px;text-align:center;&quot;&gt;&lt;b&gt;RecommendedPostResponse&lt;/b&gt;&lt;/p&gt;&lt;hr size=&quot;1&quot;/&gt;&lt;p style=&quot;margin:0 0 0 4px;line-height:1.6;&quot;&gt;- comments: List&amp;lt;PostCommentResponse&amp;gt;&lt;br/&gt;- postersFirstName: String&lt;br/&gt;- likeCount: int&lt;br/&gt;- postersLastName: String&lt;br/&gt;- timestamp: LocalDateTime&lt;br/&gt;- id: Integer&lt;br/&gt;- content: String&lt;/p&gt;&lt;hr size=&quot;1&quot;/&gt;&lt;p style=&quot;margin:0 0 0 4px;line-height:1.6;&quot;&gt;+ getContent(): String&lt;br/&gt;+ setPostersLastName(String): void&lt;br/&gt;+ setPostersFirstName(String): void&lt;br/&gt;+ getId(): Integer&lt;br/&gt;+ setTimestamp(LocalDateTime): void&lt;br/&gt;+ toString(): String&lt;br/&gt;+ hashCode(): int&lt;br/&gt;+ getPostersFirstName(): String&lt;br/&gt;+ getPostersLastName(): String&lt;br/&gt;+ getComments(): List&amp;lt;PostCommentResponse&amp;gt;&lt;br/&gt;+ getTimestamp(): LocalDateTime&lt;br/&gt;+ setComments(List&amp;lt;PostCommentResponse&amp;gt;): void&lt;br/&gt;+ builder(): RecommendedPostResponseBuilder&lt;br/&gt;+ getLikeCount(): int&lt;br/&gt;+ equals(Object): boolean&lt;br/&gt;# canEqual(Object): boolean&lt;br/&gt;+ setContent(String): void&lt;br/&gt;+ setLikeCount(int): void&lt;br/&gt;+ setId(Integer): void&lt;/p&gt;" style="verticalAlign=top;align=left;overflow=fill;fontSize=14;fontFamily=Helvetica;html=1;rounded=0;shadow=0;comic=0;labelBackgroundColor=none;strokeWidth=1;" parent="1" vertex="1">
          <mxGeometry x="2092" y="4766" width="365" height="666" as="geometry" />
        </mxCell>
        <mxCell id="node2" value="&lt;p style=&quot;margin:0px;margin-top:4px;text-align:center;&quot;&gt;&lt;b&gt;RegisterRequest&lt;/b&gt;&lt;/p&gt;&lt;hr size=&quot;1&quot;/&gt;&lt;p style=&quot;margin:0 0 0 4px;line-height:1.6;&quot;&gt;- lastName: String&lt;br/&gt;- firstName: String&lt;br/&gt;- email: String&lt;br/&gt;- password: String&lt;br/&gt;- isOAuthRegistration: boolean&lt;/p&gt;&lt;hr size=&quot;1&quot;/&gt;&lt;p style=&quot;margin:0 0 0 4px;line-height:1.6;&quot;&gt;+ getLastName(): String&lt;br/&gt;+ setLastName(String): void&lt;br/&gt;+ isOAuthRegistration(): boolean&lt;br/&gt;+ getPassword(): String&lt;br/&gt;+ builder(): RegisterRequestBuilder&lt;br/&gt;+ setOAuthRegistration(boolean): void&lt;br/&gt;+ setPassword(String): void&lt;br/&gt;+ hashCode(): int&lt;br/&gt;+ toString(): String&lt;br/&gt;+ getFirstName(): String&lt;br/&gt;# canEqual(Object): boolean&lt;br/&gt;+ setEmail(String): void&lt;br/&gt;+ getEmail(): String&lt;br/&gt;+ setFirstName(String): void&lt;br/&gt;+ equals(Object): boolean&lt;/p&gt;" style="verticalAlign=top;align=left;overflow=fill;fontSize=14;fontFamily=Helvetica;html=1;rounded=0;shadow=0;comic=0;labelBackgroundColor=none;strokeWidth=1;" parent="1" vertex="1">
          <mxGeometry x="1018" y="3578" width="273" height="522" as="geometry" />
        </mxCell>
        <mxCell id="node41" value="&lt;p style=&quot;margin:0px;margin-top:4px;text-align:center;&quot;&gt;&lt;i&gt;&amp;lt;&amp;lt;enumeration&amp;gt;&amp;gt;&lt;/i&gt;&lt;br/&gt;&lt;b&gt;Role&lt;/b&gt;&lt;/p&gt;&lt;hr size=&quot;1&quot;/&gt;&lt;p style=&quot;margin:0 0 0 4px;line-height:1.6;&quot;&gt;+ ALUMNI: &lt;br/&gt;+ FACULTY: &lt;br/&gt;+ ADMIN: &lt;br/&gt;- authority: String&lt;br/&gt;+ STUDENT: &lt;br/&gt;+ GUEST: &lt;br/&gt;+ STAFF: &lt;/p&gt;&lt;hr size=&quot;1&quot;/&gt;&lt;p style=&quot;margin:0 0 0 4px;line-height:1.6;&quot;&gt;+ getSimpleGrantedAuthority(): SimpleGrantedAuthority&lt;br/&gt;+ values(): Role[]&lt;br/&gt;+ getAuthority(): String&lt;br/&gt;+ valueOf(String): Role&lt;/p&gt;" style="verticalAlign=top;align=left;overflow=fill;fontSize=14;fontFamily=Helvetica;html=1;rounded=0;shadow=0;comic=0;labelBackgroundColor=none;strokeWidth=1;" parent="1" vertex="1">
          <mxGeometry x="-137" y="-14" width="383" height="306" as="geometry" />
        </mxCell>
        <mxCell id="node1" value="&lt;p style=&quot;margin:0px;margin-top:4px;text-align:center;&quot;&gt;&lt;b&gt;SecurityConfiguration&lt;/b&gt;&lt;/p&gt;&lt;hr size=&quot;1&quot;/&gt;&lt;p style=&quot;margin:0 0 0 4px;line-height:1.6;&quot;&gt;- jwtAuthFilter: JwtAuthFilter&lt;br/&gt;- AUTHORIZED_URLS: String[]&lt;br/&gt;- authenticationProvider: AuthenticationProvider&lt;/p&gt;&lt;hr size=&quot;1&quot;/&gt;&lt;p style=&quot;margin:0 0 0 4px;line-height:1.6;&quot;&gt;+ corsConfigurationSource(): CorsConfigurationSource&lt;br/&gt;+ securityFilterChain(HttpSecurity): SecurityFilterChain&lt;/p&gt;" style="verticalAlign=top;align=left;overflow=fill;fontSize=14;fontFamily=Helvetica;html=1;rounded=0;shadow=0;comic=0;labelBackgroundColor=none;strokeWidth=1;" parent="1" vertex="1">
          <mxGeometry x="286" y="5798" width="376" height="162" as="geometry" />
        </mxCell>
        <mxCell id="node7" value="&lt;p style=&quot;margin:0px;margin-top:4px;text-align:center;&quot;&gt;&lt;b&gt;TestController&lt;/b&gt;&lt;/p&gt;&lt;hr size=&quot;1&quot;/&gt;&lt;p style=&quot;margin:0 0 0 4px;line-height:1.6;&quot;&gt;+ test(): ResponseEntity&amp;lt;String&amp;gt;&lt;/p&gt;" style="verticalAlign=top;align=left;overflow=fill;fontSize=14;fontFamily=Helvetica;html=1;rounded=0;shadow=0;comic=0;labelBackgroundColor=none;strokeWidth=1;" parent="1" vertex="1">
          <mxGeometry x="1714" y="2148" width="240" height="68" as="geometry" />
        </mxCell>
        <mxCell id="node14" value="&lt;p style=&quot;margin:0px;margin-top:4px;text-align:center;&quot;&gt;&lt;b&gt;USMSocialApplication&lt;/b&gt;&lt;/p&gt;&lt;hr size=&quot;1&quot;/&gt;&lt;p style=&quot;margin:0 0 0 4px;line-height:1.6;&quot;&gt;- log: Logger&lt;/p&gt;&lt;hr size=&quot;1&quot;/&gt;&lt;p style=&quot;margin:0 0 0 4px;line-height:1.6;&quot;&gt;+ generateRandomString(int): String&lt;br/&gt;+ main(String[]): void&lt;br/&gt;+ createDefaults(JdbcTemplate, BCryptPasswordEncoder, UserRepository): CommandLineRunner&lt;br/&gt;+ convertImageToByteArray(String): byte[]&lt;/p&gt;" style="verticalAlign=top;align=left;overflow=fill;fontSize=14;fontFamily=Helvetica;html=1;rounded=0;shadow=0;comic=0;labelBackgroundColor=none;strokeWidth=1;" parent="1" vertex="1">
          <mxGeometry x="-134" y="5998" width="576" height="162" as="geometry" />
        </mxCell>
        <mxCell id="node18" value="&lt;p style=&quot;margin:0px;margin-top:4px;text-align:center;&quot;&gt;&lt;b&gt;USMSocialApplicationTests&lt;/b&gt;&lt;/p&gt;&lt;hr size=&quot;1&quot;/&gt;&lt;p style=&quot;margin:0 0 0 4px;line-height:1.6;&quot;&gt;~ contextLoads(): void&lt;/p&gt;" style="verticalAlign=top;align=left;overflow=fill;fontSize=14;fontFamily=Helvetica;html=1;rounded=0;shadow=0;comic=0;labelBackgroundColor=none;strokeWidth=1;" parent="1" vertex="1">
          <mxGeometry x="1262" y="2148" width="264" height="68" as="geometry" />
        </mxCell>
        <mxCell id="node26" value="&lt;p style=&quot;margin:0px;margin-top:4px;text-align:center;&quot;&gt;&lt;b&gt;User&lt;/b&gt;&lt;/p&gt;&lt;hr size=&quot;1&quot;/&gt;&lt;p style=&quot;margin:0 0 0 4px;line-height:1.6;&quot;&gt;- lastName: String&lt;br/&gt;- email: String&lt;br/&gt;- verificationToken: String&lt;br/&gt;- verified: boolean&lt;br/&gt;- timestamp: LocalDateTime&lt;br/&gt;- firstName: String&lt;br/&gt;- password: String&lt;br/&gt;- profilePicture: byte[]&lt;br/&gt;- id: Integer&lt;br/&gt;- role: Role&lt;/p&gt;&lt;hr size=&quot;1&quot;/&gt;&lt;p style=&quot;margin:0 0 0 4px;line-height:1.6;&quot;&gt;+ setRole(Role): void&lt;br/&gt;+ hashCode(): int&lt;br/&gt;+ getVerificationToken(): String&lt;br/&gt;+ setPassword(String): void&lt;br/&gt;+ getTimestamp(): LocalDateTime&lt;br/&gt;+ getFirstName(): String&lt;br/&gt;+ setFirstName(String): void&lt;br/&gt;+ setProfilePicture(byte[]): void&lt;br/&gt;# canEqual(Object): boolean&lt;br/&gt;+ setEmail(String): void&lt;br/&gt;+ isCredentialsNonExpired(): boolean&lt;br/&gt;+ setVerificationToken(String): void&lt;br/&gt;+ getAuthorities(): Collection&amp;lt;GrantedAuthority&amp;gt;&lt;br/&gt;+ toString(): String&lt;br/&gt;+ getProfilePicture(): byte[]&lt;br/&gt;+ builder(): UserBuilder&lt;br/&gt;+ setId(Integer): void&lt;br/&gt;+ getLastName(): String&lt;br/&gt;+ getPassword(): String&lt;br/&gt;+ getRole(): Role&lt;br/&gt;+ isEnabled(): boolean&lt;br/&gt;+ getEmail(): String&lt;br/&gt;+ setVerified(boolean): void&lt;br/&gt;+ isVerified(): boolean&lt;br/&gt;+ setTimestamp(LocalDateTime): void&lt;br/&gt;+ equals(Object): boolean&lt;br/&gt;+ getUsername(): String&lt;br/&gt;+ getId(): Integer&lt;br/&gt;+ isAccountNonExpired(): boolean&lt;br/&gt;+ setLastName(String): void&lt;br/&gt;+ isAccountNonLocked(): boolean&lt;br/&gt;+ generateVerificationToken(): void&lt;/p&gt;" style="verticalAlign=top;align=left;overflow=fill;fontSize=14;fontFamily=Helvetica;html=1;rounded=0;shadow=0;comic=0;labelBackgroundColor=none;strokeWidth=1;" parent="1" vertex="1">
          <mxGeometry x="-116" y="394" width="341" height="1050" as="geometry" />
        </mxCell>
        <mxCell id="node22" value="&lt;p style=&quot;margin:0px;margin-top:4px;text-align:center;&quot;&gt;&lt;b&gt;UserActionResponse&lt;/b&gt;&lt;/p&gt;&lt;hr size=&quot;1&quot;/&gt;&lt;p style=&quot;margin:0 0 0 4px;line-height:1.6;&quot;&gt;- status: int&lt;br/&gt;- message: String&lt;/p&gt;&lt;hr size=&quot;1&quot;/&gt;&lt;p style=&quot;margin:0 0 0 4px;line-height:1.6;&quot;&gt;+ setStatus(int): void&lt;br/&gt;+ getStatus(): int&lt;br/&gt;+ getMessage(): String&lt;br/&gt;+ setMessage(String): void&lt;br/&gt;+ equals(Object): boolean&lt;br/&gt;# canEqual(Object): boolean&lt;br/&gt;+ hashCode(): int&lt;br/&gt;+ toString(): String&lt;br/&gt;+ builder(): UserActionResponseBuilder&lt;/p&gt;" style="verticalAlign=top;align=left;overflow=fill;fontSize=14;fontFamily=Helvetica;html=1;rounded=0;shadow=0;comic=0;labelBackgroundColor=none;strokeWidth=1;" parent="1" vertex="1">
          <mxGeometry x="874" y="2406" width="280" height="306" as="geometry" />
        </mxCell>
        <mxCell id="node45" value="&lt;p style=&quot;margin:0px;margin-top:4px;text-align:center;&quot;&gt;&lt;b&gt;UserActionResponse&lt;/b&gt;&lt;/p&gt;&lt;hr size=&quot;1&quot;/&gt;&lt;p style=&quot;margin:0 0 0 4px;line-height:1.6;&quot;&gt;- message: String&lt;br/&gt;- status: int&lt;/p&gt;&lt;hr size=&quot;1&quot;/&gt;&lt;p style=&quot;margin:0 0 0 4px;line-height:1.6;&quot;&gt;+ setStatus(int): void&lt;br/&gt;+ hashCode(): int&lt;br/&gt;+ getMessage(): String&lt;br/&gt;+ equals(Object): boolean&lt;br/&gt;# canEqual(Object): boolean&lt;br/&gt;+ builder(): UserActionResponseBuilder&lt;br/&gt;+ setMessage(String): void&lt;br/&gt;+ getStatus(): int&lt;br/&gt;+ toString(): String&lt;/p&gt;" style="verticalAlign=top;align=left;overflow=fill;fontSize=14;fontFamily=Helvetica;html=1;rounded=0;shadow=0;comic=0;labelBackgroundColor=none;strokeWidth=1;" parent="1" vertex="1">
          <mxGeometry x="74" y="2966" width="280" height="306" as="geometry" />
        </mxCell>
        <mxCell id="node15" value="&lt;p style=&quot;margin:0px;margin-top:4px;text-align:center;&quot;&gt;&lt;b&gt;UserController&lt;/b&gt;&lt;/p&gt;&lt;hr size=&quot;1&quot;/&gt;&lt;p style=&quot;margin:0 0 0 4px;line-height:1.6;&quot;&gt;- service: UserService&lt;/p&gt;&lt;hr size=&quot;1&quot;/&gt;&lt;p style=&quot;margin:0 0 0 4px;line-height:1.6;&quot;&gt;+ unfollowUser(Integer): ResponseEntity&amp;lt;UserActionResponse&amp;gt;&lt;br/&gt;+ messageUser(String): ResponseEntity&amp;lt;String&amp;gt;&lt;br/&gt;+ followUser(Integer): ResponseEntity&amp;lt;UserActionResponse&amp;gt;&lt;br/&gt;+ changeProfilePicture(MultipartFile): ResponseEntity&amp;lt;UserActionResponse&amp;gt;&lt;/p&gt;" style="verticalAlign=top;align=left;overflow=fill;fontSize=14;fontFamily=Helvetica;html=1;rounded=0;shadow=0;comic=0;labelBackgroundColor=none;strokeWidth=1;" parent="1" vertex="1">
          <mxGeometry x="495" y="5998" width="518" height="162" as="geometry" />
        </mxCell>
        <mxCell id="node21" value="&lt;p style=&quot;margin:0px;margin-top:4px;text-align:center;&quot;&gt;&lt;b&gt;UserFollowerId&lt;/b&gt;&lt;/p&gt;&lt;hr size=&quot;1&quot;/&gt;&lt;p style=&quot;margin:0 0 0 4px;line-height:1.6;&quot;&gt;- following: User&lt;br/&gt;- follower: User&lt;/p&gt;&lt;hr size=&quot;1&quot;/&gt;&lt;p style=&quot;margin:0 0 0 4px;line-height:1.6;&quot;&gt;+ setFollowing(User): void&lt;br/&gt;# canEqual(Object): boolean&lt;br/&gt;+ builder(): UserFollowerIdBuilder&lt;br/&gt;+ equals(Object): boolean&lt;br/&gt;+ hashCode(): int&lt;br/&gt;+ getFollowing(): User&lt;br/&gt;+ toString(): String&lt;br/&gt;+ getFollower(): User&lt;br/&gt;+ setFollower(User): void&lt;/p&gt;" style="verticalAlign=top;align=left;overflow=fill;fontSize=14;fontFamily=Helvetica;html=1;rounded=0;shadow=0;comic=0;labelBackgroundColor=none;strokeWidth=1;" parent="1" vertex="1">
          <mxGeometry x="413" y="2026" width="243" height="306" as="geometry" />
        </mxCell>
        <mxCell id="node42" value="&lt;p style=&quot;margin:0px;margin-top:4px;text-align:center;&quot;&gt;&lt;b&gt;UserFollowers&lt;/b&gt;&lt;/p&gt;&lt;hr size=&quot;1&quot;/&gt;&lt;p style=&quot;margin:0 0 0 4px;line-height:1.6;&quot;&gt;- timestamp: LocalDateTime&lt;br/&gt;- id: UserFollowerId&lt;/p&gt;&lt;hr size=&quot;1&quot;/&gt;&lt;p style=&quot;margin:0 0 0 4px;line-height:1.6;&quot;&gt;+ getId(): UserFollowerId&lt;br/&gt;+ setId(UserFollowerId): void&lt;br/&gt;+ equals(Object): boolean&lt;br/&gt;+ toString(): String&lt;br/&gt;- validateUsers(): void&lt;br/&gt;+ builder(): UserFollowersBuilder&lt;br/&gt;+ hashCode(): int&lt;br/&gt;# canEqual(Object): boolean&lt;br/&gt;+ getTimestamp(): LocalDateTime&lt;br/&gt;+ setTimestamp(LocalDateTime): void&lt;/p&gt;" style="verticalAlign=top;align=left;overflow=fill;fontSize=14;fontFamily=Helvetica;html=1;rounded=0;shadow=0;comic=0;labelBackgroundColor=none;strokeWidth=1;" parent="1" vertex="1">
          <mxGeometry x="401" y="2954" width="267" height="330" as="geometry" />
        </mxCell>
        <mxCell id="node13" value="&lt;p style=&quot;margin:0px;margin-top:4px;text-align:center;&quot;&gt;&lt;b&gt;UserPost&lt;/b&gt;&lt;/p&gt;&lt;hr size=&quot;1&quot;/&gt;&lt;p style=&quot;margin:0 0 0 4px;line-height:1.6;&quot;&gt;- user: User&lt;br/&gt;- likes: Set&amp;lt;PostLike&amp;gt;&lt;br/&gt;- likeCount: int&lt;br/&gt;- comments: List&amp;lt;PostComment&amp;gt;&lt;br/&gt;- timestamp: LocalDateTime&lt;br/&gt;- content: String&lt;br/&gt;- id: Integer&lt;/p&gt;&lt;hr size=&quot;1&quot;/&gt;&lt;p style=&quot;margin:0 0 0 4px;line-height:1.6;&quot;&gt;+ setContent(String): void&lt;br/&gt;+ removeLike(PostLike): void&lt;br/&gt;+ getLikeCount(): int&lt;br/&gt;+ setComments(List&amp;lt;PostComment&amp;gt;): void&lt;br/&gt;+ getComments(): List&amp;lt;PostComment&amp;gt;&lt;br/&gt;+ builder(): UserPostBuilder&lt;br/&gt;+ toString(): String&lt;br/&gt;+ equals(Object): boolean&lt;br/&gt;+ updateLikeCount(): void&lt;br/&gt;+ getLikes(): Set&amp;lt;PostLike&amp;gt;&lt;br/&gt;# canEqual(Object): boolean&lt;br/&gt;+ getUser(): User&lt;br/&gt;+ setTimestamp(LocalDateTime): void&lt;br/&gt;+ hashCode(): int&lt;br/&gt;+ setLikeCount(int): void&lt;br/&gt;+ setUser(User): void&lt;br/&gt;+ addLike(PostLike): void&lt;br/&gt;+ getContent(): String&lt;br/&gt;+ getId(): Integer&lt;br/&gt;+ setLikes(Set&amp;lt;PostLike&amp;gt;): void&lt;br/&gt;+ getTimestamp(): LocalDateTime&lt;br/&gt;+ setId(Integer): void&lt;/p&gt;" style="verticalAlign=top;align=left;overflow=fill;fontSize=14;fontFamily=Helvetica;html=1;rounded=0;shadow=0;comic=0;labelBackgroundColor=none;strokeWidth=1;" parent="1" vertex="1">
          <mxGeometry x="1483" y="2750" width="303" height="738" as="geometry" />
        </mxCell>
        <mxCell id="node9" value="&lt;p style=&quot;margin:0px;margin-top:4px;text-align:center;&quot;&gt;&lt;b&gt;UserPostRequest&lt;/b&gt;&lt;/p&gt;&lt;hr size=&quot;1&quot;/&gt;&lt;p style=&quot;margin:0 0 0 4px;line-height:1.6;&quot;&gt;- content: String&lt;br/&gt;- id: int&lt;/p&gt;&lt;hr size=&quot;1&quot;/&gt;&lt;p style=&quot;margin:0 0 0 4px;line-height:1.6;&quot;&gt;+ equals(Object): boolean&lt;br/&gt;+ getId(): int&lt;br/&gt;+ getContent(): String&lt;br/&gt;+ setId(int): void&lt;br/&gt;+ setContent(String): void&lt;br/&gt;# canEqual(Object): boolean&lt;br/&gt;+ hashCode(): int&lt;br/&gt;+ toString(): String&lt;br/&gt;+ builder(): UserPostRequestBuilder&lt;/p&gt;" style="verticalAlign=top;align=left;overflow=fill;fontSize=14;fontFamily=Helvetica;html=1;rounded=0;shadow=0;comic=0;labelBackgroundColor=none;strokeWidth=1;" parent="1" vertex="1">
          <mxGeometry x="1285" y="2406" width="258" height="306" as="geometry" />
        </mxCell>
        <mxCell id="node40" value="&lt;p style=&quot;margin:0px;margin-top:4px;text-align:center;&quot;&gt;&lt;b&gt;UserPostRequest&lt;/b&gt;&lt;/p&gt;&lt;hr size=&quot;1&quot;/&gt;&lt;p style=&quot;margin:0 0 0 4px;line-height:1.6;&quot;&gt;- id: int&lt;br/&gt;- content: String&lt;/p&gt;&lt;hr size=&quot;1&quot;/&gt;&lt;p style=&quot;margin:0 0 0 4px;line-height:1.6;&quot;&gt;+ getId(): int&lt;br/&gt;+ builder(): UserPostRequestBuilder&lt;br/&gt;# canEqual(Object): boolean&lt;br/&gt;+ toString(): String&lt;br/&gt;+ getContent(): String&lt;br/&gt;+ setContent(String): void&lt;br/&gt;+ setId(int): void&lt;br/&gt;+ equals(Object): boolean&lt;br/&gt;+ hashCode(): int&lt;/p&gt;" style="verticalAlign=top;align=left;overflow=fill;fontSize=14;fontFamily=Helvetica;html=1;rounded=0;shadow=0;comic=0;labelBackgroundColor=none;strokeWidth=1;" parent="1" vertex="1">
          <mxGeometry x="245" y="2406" width="258" height="306" as="geometry" />
        </mxCell>
        <mxCell id="node19" value="&lt;p style=&quot;margin:0px;margin-top:4px;text-align:center;&quot;&gt;&lt;i&gt;&amp;lt;&amp;lt;interface&amp;gt;&amp;gt;&lt;/i&gt;&lt;br/&gt;&lt;b&gt;UserRepository&lt;/b&gt;&lt;/p&gt;&lt;hr size=&quot;1&quot;/&gt;&lt;p style=&quot;margin:0 0 0 4px;line-height:1.6;&quot;&gt;+ findByVerificationToken(String): Optional&amp;lt;User&amp;gt;&lt;br/&gt;+ findByEmail(String): Optional&amp;lt;User&amp;gt;&lt;/p&gt;" style="verticalAlign=top;align=left;overflow=fill;fontSize=14;fontFamily=Helvetica;html=1;rounded=0;shadow=0;comic=0;labelBackgroundColor=none;strokeWidth=1;" parent="1" vertex="1">
          <mxGeometry x="1460" y="3796" width="348" height="109" as="geometry" />
        </mxCell>
        <mxCell id="node20" value="&lt;p style=&quot;margin:0px;margin-top:4px;text-align:center;&quot;&gt;&lt;b&gt;UserRequest&lt;/b&gt;&lt;/p&gt;&lt;hr size=&quot;1&quot;/&gt;&lt;p style=&quot;margin:0 0 0 4px;line-height:1.6;&quot;&gt;- targetId: int&lt;/p&gt;&lt;hr size=&quot;1&quot;/&gt;&lt;p style=&quot;margin:0 0 0 4px;line-height:1.6;&quot;&gt;# canEqual(Object): boolean&lt;br/&gt;+ getTargetId(): int&lt;br/&gt;+ equals(Object): boolean&lt;br/&gt;+ hashCode(): int&lt;br/&gt;+ builder(): UserRequestBuilder&lt;br/&gt;+ setTargetId(int): void&lt;br/&gt;+ toString(): String&lt;/p&gt;" style="verticalAlign=top;align=left;overflow=fill;fontSize=14;fontFamily=Helvetica;html=1;rounded=0;shadow=0;comic=0;labelBackgroundColor=none;strokeWidth=1;" parent="1" vertex="1">
          <mxGeometry x="979" y="1642" width="230" height="234" as="geometry" />
        </mxCell>
        <mxCell id="node33" value="&lt;p style=&quot;margin:0px;margin-top:4px;text-align:center;&quot;&gt;&lt;b&gt;UserService&lt;/b&gt;&lt;/p&gt;&lt;hr size=&quot;1&quot;/&gt;&lt;p style=&quot;margin:0 0 0 4px;line-height:1.6;&quot;&gt;- followerRepository: FollowerRepository&lt;br/&gt;- jwtService: JwtService&lt;br/&gt;- userRepository: UserRepository&lt;/p&gt;&lt;hr size=&quot;1&quot;/&gt;&lt;p style=&quot;margin:0 0 0 4px;line-height:1.6;&quot;&gt;+ uploadProfilePicture(HttpServletRequest, byte[]): UserActionResponse&lt;br/&gt;- isValidImageFormat(byte[]): boolean&lt;br/&gt;+ followUser(HttpServletRequest, Integer): UserActionResponse&lt;br/&gt;+ unfollowUser(HttpServletRequest, Integer): UserActionResponse&lt;/p&gt;" style="verticalAlign=top;align=left;overflow=fill;fontSize=14;fontFamily=Helvetica;html=1;rounded=0;shadow=0;comic=0;labelBackgroundColor=none;strokeWidth=1;" parent="1" vertex="1">
          <mxGeometry x="389" y="4994" width="490" height="210" as="geometry" />
        </mxCell>
        <mxCell id="node30" value="&lt;p style=&quot;margin:0px;margin-top:4px;text-align:center;&quot;&gt;&lt;b&gt;VerificationController&lt;/b&gt;&lt;/p&gt;&lt;hr size=&quot;1&quot;/&gt;&lt;p style=&quot;margin:0 0 0 4px;line-height:1.6;&quot;&gt;- userRepository: UserRepository&lt;br/&gt;- passwordEncoder: PasswordEncoder&lt;br/&gt;- senderService: EmailSenderService&lt;/p&gt;&lt;hr size=&quot;1&quot;/&gt;&lt;p style=&quot;margin:0 0 0 4px;line-height:1.6;&quot;&gt;+ verifyAccount(String): ResponseEntity&amp;lt;String&amp;gt;&lt;br/&gt;+ resetPassword(RegisterRequest): ResponseEntity&amp;lt;String&amp;gt;&lt;br/&gt;+ changePassword(String, RegisterRequest): ResponseEntity&amp;lt;String&amp;gt;&lt;/p&gt;" style="verticalAlign=top;align=left;overflow=fill;fontSize=14;fontFamily=Helvetica;html=1;rounded=0;shadow=0;comic=0;labelBackgroundColor=none;strokeWidth=1;" parent="1" vertex="1">
          <mxGeometry x="919" y="5006" width="471" height="186" as="geometry" />
        </mxCell>
        <mxCell id="edge8" value="" style="html=1;rounded=1;edgeStyle=orthogonalEdgeStyle;dashed=0;startArrow=diamondThinstartSize=12;endArrow=openThin;endSize=12;strokeColor=#595959;exitX=0.500;exitY=0.000;exitDx=0;exitDy=0;entryX=0.500;entryY=1.000;entryDx=0;entryDy=0;" parent="1" source="node17" target="node10" edge="1">
          <mxGeometry width="50" height="50" relative="1" as="geometry">
            <Array as="points" />
          </mxGeometry>
        </mxCell>
        <mxCell id="label48" value="1" style="edgeLabel;resizable=0;html=1;align=left;verticalAlign=top;strokeColor=default;" parent="edge8" vertex="1" connectable="0">
          <mxGeometry x="2043" y="5990" as="geometry" />
        </mxCell>
        <mxCell id="label52" value="1" style="edgeLabel;resizable=0;html=1;align=left;verticalAlign=top;strokeColor=default;" parent="edge8" vertex="1" connectable="0">
          <mxGeometry x="2043" y="5684" as="geometry" />
        </mxCell>
        <mxCell id="label53" value="service" style="edgeLabel;resizable=0;html=1;align=left;verticalAlign=top;strokeColor=default;" parent="edge8" vertex="1" connectable="0">
          <mxGeometry x="2054" y="5684" as="geometry" />
        </mxCell>
        <mxCell id="edge17" value="" style="html=1;rounded=1;edgeStyle=orthogonalEdgeStyle;dashed=0;startArrow=diamondThinstartSize=12;endArrow=openThin;endSize=12;strokeColor=#595959;exitX=0.500;exitY=0.000;exitDx=0;exitDy=0;entryX=0.500;entryY=1.001;entryDx=0;entryDy=0;" parent="1" source="node10" target="node38" edge="1">
          <mxGeometry width="50" height="50" relative="1" as="geometry">
            <Array as="points">
              <mxPoint x="2054" y="4439" />
              <mxPoint x="2114" y="4439" />
            </Array>
          </mxGeometry>
        </mxCell>
        <mxCell id="label102" value="1" style="edgeLabel;resizable=0;html=1;align=left;verticalAlign=top;strokeColor=default;" parent="edge17" vertex="1" connectable="0">
          <mxGeometry x="2043" y="5371" as="geometry" />
        </mxCell>
        <mxCell id="label106" value="1" style="edgeLabel;resizable=0;html=1;align=left;verticalAlign=top;strokeColor=default;" parent="edge17" vertex="1" connectable="0">
          <mxGeometry x="2079" y="4419" as="geometry" />
        </mxCell>
        <mxCell id="label107" value="commentRepository" style="edgeLabel;resizable=0;html=1;align=left;verticalAlign=top;strokeColor=default;" parent="edge17" vertex="1" connectable="0">
          <mxGeometry x="2114" y="4418" as="geometry" />
        </mxCell>
        <mxCell id="edge3" value="" style="html=1;rounded=1;edgeStyle=orthogonalEdgeStyle;dashed=0;startArrow=diamondThinstartSize=12;endArrow=openThin;endSize=12;strokeColor=#595959;exitX=0.500;exitY=0.000;exitDx=0;exitDy=0;entryX=0.500;entryY=1.001;entryDx=0;entryDy=0;" parent="1" source="node10" target="node5" edge="1">
          <mxGeometry width="50" height="50" relative="1" as="geometry">
            <Array as="points">
              <mxPoint x="2054" y="4499" />
              <mxPoint x="1994" y="4499" />
            </Array>
          </mxGeometry>
        </mxCell>
        <mxCell id="label18" value="1" style="edgeLabel;resizable=0;html=1;align=left;verticalAlign=top;strokeColor=default;" parent="edge3" vertex="1" connectable="0">
          <mxGeometry x="2043" y="5461" as="geometry" />
        </mxCell>
        <mxCell id="label22" value="1" style="edgeLabel;resizable=0;html=1;align=left;verticalAlign=top;strokeColor=default;" parent="edge3" vertex="1" connectable="0">
          <mxGeometry x="1983" y="3908" as="geometry" />
        </mxCell>
        <mxCell id="label23" value="likeRepository" style="edgeLabel;resizable=0;html=1;align=left;verticalAlign=top;strokeColor=default;" parent="edge3" vertex="1" connectable="0">
          <mxGeometry x="1994" y="3908" as="geometry" />
        </mxCell>
        <mxCell id="edge2" value="" style="html=1;rounded=1;edgeStyle=orthogonalEdgeStyle;dashed=0;startArrow=diamondThinstartSize=12;endArrow=openThin;endSize=12;strokeColor=#595959;exitX=0.500;exitY=0.000;exitDx=0;exitDy=0;entryX=0.500;entryY=1.000;entryDx=0;entryDy=0;" parent="1" source="node10" target="node36" edge="1">
          <mxGeometry width="50" height="50" relative="1" as="geometry">
            <Array as="points">
              <mxPoint x="2054" y="4519" />
              <mxPoint x="1834" y="4519" />
            </Array>
          </mxGeometry>
        </mxCell>
        <mxCell id="label12" value="1" style="edgeLabel;resizable=0;html=1;align=left;verticalAlign=top;strokeColor=default;" parent="edge2" vertex="1" connectable="0">
          <mxGeometry x="2003" y="5379" as="geometry" />
        </mxCell>
        <mxCell id="label16" value="1" style="edgeLabel;resizable=0;html=1;align=left;verticalAlign=top;strokeColor=default;" parent="edge2" vertex="1" connectable="0">
          <mxGeometry x="1961" y="4499" as="geometry" />
        </mxCell>
        <mxCell id="label17" value="postRepository" style="edgeLabel;resizable=0;html=1;align=left;verticalAlign=top;strokeColor=default;" parent="edge2" vertex="1" connectable="0">
          <mxGeometry x="1834" y="4509" as="geometry" />
        </mxCell>
        <mxCell id="edge31" value="" style="html=1;rounded=1;edgeStyle=orthogonalEdgeStyle;dashed=0;startArrow=diamondThinstartSize=12;endArrow=openThin;endSize=12;strokeColor=#595959;exitX=0.500;exitY=0.000;exitDx=0;exitDy=0;entryX=0.500;entryY=1.001;entryDx=0;entryDy=0;" parent="1" source="node10" target="node19" edge="1">
          <mxGeometry width="50" height="50" relative="1" as="geometry">
            <Array as="points">
              <mxPoint x="2054" y="4699" />
              <mxPoint x="1454" y="4699" />
              <mxPoint x="1454" y="4679" />
              <mxPoint x="1634" y="4679" />
            </Array>
          </mxGeometry>
        </mxCell>
        <mxCell id="label186" value="1" style="edgeLabel;resizable=0;html=1;align=left;verticalAlign=top;strokeColor=default;" parent="edge31" vertex="1" connectable="0">
          <mxGeometry x="2003" y="5461" as="geometry" />
        </mxCell>
        <mxCell id="label190" value="1" style="edgeLabel;resizable=0;html=1;align=left;verticalAlign=top;strokeColor=default;" parent="edge31" vertex="1" connectable="0">
          <mxGeometry x="1623" y="3888" as="geometry" />
        </mxCell>
        <mxCell id="label191" value="userRepository" style="edgeLabel;resizable=0;html=1;align=left;verticalAlign=top;strokeColor=default;" parent="edge31" vertex="1" connectable="0">
          <mxGeometry x="1634" y="3888" as="geometry" />
        </mxCell>
        <mxCell id="edge9" value="" style="html=1;rounded=1;edgeStyle=orthogonalEdgeStyle;dashed=0;startArrow=diamondThinstartSize=12;endArrow=openThin;endSize=12;strokeColor=#595959;exitX=0.500;exitY=0.000;exitDx=0;exitDy=0;entryX=0.500;entryY=1.001;entryDx=0;entryDy=0;" parent="1" source="node37" target="node19" edge="1">
          <mxGeometry width="50" height="50" relative="1" as="geometry">
            <Array as="points">
              <mxPoint x="1454" y="4679" />
              <mxPoint x="1634" y="4679" />
            </Array>
          </mxGeometry>
        </mxCell>
        <mxCell id="label54" value="1" style="edgeLabel;resizable=0;html=1;align=left;verticalAlign=top;strokeColor=default;" parent="edge9" vertex="1" connectable="0">
          <mxGeometry x="1443" y="5473" as="geometry" />
        </mxCell>
        <mxCell id="label58" value="1" style="edgeLabel;resizable=0;html=1;align=left;verticalAlign=top;strokeColor=default;" parent="edge9" vertex="1" connectable="0">
          <mxGeometry x="1623" y="3952" as="geometry" />
        </mxCell>
        <mxCell id="label59" value="userRepository" style="edgeLabel;resizable=0;html=1;align=left;verticalAlign=top;strokeColor=default;" parent="edge9" vertex="1" connectable="0">
          <mxGeometry x="1634" y="3952" as="geometry" />
        </mxCell>
        <mxCell id="edge11" value="" style="html=1;rounded=1;edgeStyle=orthogonalEdgeStyle;dashed=0;startArrow=diamondThinstartSize=12;endArrow=openThin;endSize=12;strokeColor=#595959;exitX=0.500;exitY=0.000;exitDx=0;exitDy=0;entryX=0.500;entryY=1.000;entryDx=0;entryDy=0;" parent="1" source="node28" target="node35" edge="1">
          <mxGeometry width="50" height="50" relative="1" as="geometry">
            <Array as="points">
              <mxPoint x="1334" y="5819" />
              <mxPoint x="894" y="5819" />
            </Array>
          </mxGeometry>
        </mxCell>
        <mxCell id="label66" value="1" style="edgeLabel;resizable=0;html=1;align=left;verticalAlign=top;strokeColor=default;" parent="edge11" vertex="1" connectable="0">
          <mxGeometry x="1323" y="5976" as="geometry" />
        </mxCell>
        <mxCell id="label70" value="1" style="edgeLabel;resizable=0;html=1;align=left;verticalAlign=top;strokeColor=default;" parent="edge11" vertex="1" connectable="0">
          <mxGeometry x="883" y="5707" as="geometry" />
        </mxCell>
        <mxCell id="label71" value="service" style="edgeLabel;resizable=0;html=1;align=left;verticalAlign=top;strokeColor=default;" parent="edge11" vertex="1" connectable="0">
          <mxGeometry x="894" y="5707" as="geometry" />
        </mxCell>
        <mxCell id="edge18" value="" style="html=1;rounded=1;edgeStyle=orthogonalEdgeStyle;dashed=0;startArrow=diamondThinstartSize=12;endArrow=openThin;endSize=12;strokeColor=#595959;exitX=0.500;exitY=0.000;exitDx=0;exitDy=0;entryX=0.500;entryY=1.000;entryDx=0;entryDy=0;" parent="1" source="node35" target="node24" edge="1">
          <mxGeometry width="50" height="50" relative="1" as="geometry">
            <Array as="points">
              <mxPoint x="894" y="4939" />
              <mxPoint x="914" y="4939" />
            </Array>
          </mxGeometry>
        </mxCell>
        <mxCell id="label108" value="1" style="edgeLabel;resizable=0;html=1;align=left;verticalAlign=top;strokeColor=default;" parent="edge18" vertex="1" connectable="0">
          <mxGeometry x="883" y="5437" as="geometry" />
        </mxCell>
        <mxCell id="label112" value="1" style="edgeLabel;resizable=0;html=1;align=left;verticalAlign=top;strokeColor=default;" parent="edge18" vertex="1" connectable="0">
          <mxGeometry x="903" y="4505" as="geometry" />
        </mxCell>
        <mxCell id="label113" value="senderService" style="edgeLabel;resizable=0;html=1;align=left;verticalAlign=top;strokeColor=default;" parent="edge18" vertex="1" connectable="0">
          <mxGeometry x="914" y="4505" as="geometry" />
        </mxCell>
        <mxCell id="edge30" value="" style="html=1;rounded=1;edgeStyle=orthogonalEdgeStyle;dashed=0;startArrow=diamondThinstartSize=12;endArrow=openThin;endSize=12;strokeColor=#595959;exitX=0.500;exitY=0.000;exitDx=0;exitDy=0;entryX=0.500;entryY=1.000;entryDx=0;entryDy=0;" parent="1" source="node35" target="node31" edge="1">
          <mxGeometry width="50" height="50" relative="1" as="geometry">
            <Array as="points">
              <mxPoint x="894" y="4879" />
              <mxPoint x="434" y="4879" />
            </Array>
          </mxGeometry>
        </mxCell>
        <mxCell id="label180" value="1" style="edgeLabel;resizable=0;html=1;align=left;verticalAlign=top;strokeColor=default;" parent="edge30" vertex="1" connectable="0">
          <mxGeometry x="883" y="5394" as="geometry" />
        </mxCell>
        <mxCell id="label184" value="1" style="edgeLabel;resizable=0;html=1;align=left;verticalAlign=top;strokeColor=default;" parent="edge30" vertex="1" connectable="0">
          <mxGeometry x="423" y="4557" as="geometry" />
        </mxCell>
        <mxCell id="label185" value="jwtService" style="edgeLabel;resizable=0;html=1;align=left;verticalAlign=top;strokeColor=default;" parent="edge30" vertex="1" connectable="0">
          <mxGeometry x="434" y="4607" as="geometry" />
        </mxCell>
        <mxCell id="edge21" value="" style="html=1;rounded=1;edgeStyle=orthogonalEdgeStyle;dashed=0;startArrow=diamondThinstartSize=12;endArrow=openThin;endSize=12;strokeColor=#595959;exitX=0.500;exitY=0.000;exitDx=0;exitDy=0;entryX=0.500;entryY=1.001;entryDx=0;entryDy=0;" parent="1" source="node35" target="node19" edge="1">
          <mxGeometry width="50" height="50" relative="1" as="geometry">
            <Array as="points">
              <mxPoint x="894" y="4959" />
              <mxPoint x="1454" y="4959" />
              <mxPoint x="1454" y="4679" />
              <mxPoint x="1634" y="4679" />
            </Array>
          </mxGeometry>
        </mxCell>
        <mxCell id="label126" value="1" style="edgeLabel;resizable=0;html=1;align=left;verticalAlign=top;strokeColor=default;" parent="edge21" vertex="1" connectable="0">
          <mxGeometry x="883" y="5368" as="geometry" />
        </mxCell>
        <mxCell id="label130" value="1" style="edgeLabel;resizable=0;html=1;align=left;verticalAlign=top;strokeColor=default;" parent="edge21" vertex="1" connectable="0">
          <mxGeometry x="1583" y="3888" as="geometry" />
        </mxCell>
        <mxCell id="label131" value="userRepository" style="edgeLabel;resizable=0;html=1;align=left;verticalAlign=top;strokeColor=default;" parent="edge21" vertex="1" connectable="0">
          <mxGeometry x="1634" y="3888" as="geometry" />
        </mxCell>
        <mxCell id="edge29" value="" style="html=1;rounded=1;edgeStyle=orthogonalEdgeStyle;dashed=0;startArrow=diamondThinstartSize=12;endArrow=openThin;endSize=12;strokeColor=#595959;exitX=0.500;exitY=0.000;exitDx=0;exitDy=0;entryX=0.500;entryY=1.000;entryDx=0;entryDy=0;" parent="1" source="node44" target="node31" edge="1">
          <mxGeometry width="50" height="50" relative="1" as="geometry">
            <Array as="points">
              <mxPoint x="374" y="4899" />
              <mxPoint x="434" y="4899" />
            </Array>
          </mxGeometry>
        </mxCell>
        <mxCell id="label174" value="1" style="edgeLabel;resizable=0;html=1;align=left;verticalAlign=top;strokeColor=default;" parent="edge29" vertex="1" connectable="0">
          <mxGeometry x="363" y="5485" as="geometry" />
        </mxCell>
        <mxCell id="label178" value="1" style="edgeLabel;resizable=0;html=1;align=left;verticalAlign=top;strokeColor=default;" parent="edge29" vertex="1" connectable="0">
          <mxGeometry x="423" y="4577" as="geometry" />
        </mxCell>
        <mxCell id="label179" value="jwtService" style="edgeLabel;resizable=0;html=1;align=left;verticalAlign=top;strokeColor=default;" parent="edge29" vertex="1" connectable="0">
          <mxGeometry x="434" y="4646" as="geometry" />
        </mxCell>
        <mxCell id="edge23" value="" style="html=1;rounded=1;edgeStyle=orthogonalEdgeStyle;dashed=0;startArrow=diamondThinstartSize=12;endArrow=openThin;endSize=12;strokeColor=#595959;exitX=0.250;exitY=0.000;exitDx=0;exitDy=0;entryX=0.500;entryY=1.000;entryDx=0;entryDy=0;" parent="1" source="node32" target="node26" edge="1">
          <mxGeometry width="50" height="50" relative="1" as="geometry">
            <Array as="points">
              <mxPoint x="1307" y="4099" />
              <mxPoint x="1314" y="4099" />
              <mxPoint x="1314" y="3519" />
              <mxPoint x="54" y="3519" />
            </Array>
          </mxGeometry>
        </mxCell>
        <mxCell id="label138" value="1" style="edgeLabel;resizable=0;html=1;align=left;verticalAlign=top;strokeColor=default;" parent="edge23" vertex="1" connectable="0">
          <mxGeometry x="1303" y="4089" as="geometry" />
        </mxCell>
        <mxCell id="label142" value="1" style="edgeLabel;resizable=0;html=1;align=left;verticalAlign=top;strokeColor=default;" parent="edge23" vertex="1" connectable="0">
          <mxGeometry x="43" y="1449" as="geometry" />
        </mxCell>
        <mxCell id="label143" value="user" style="edgeLabel;resizable=0;html=1;align=left;verticalAlign=top;strokeColor=default;" parent="edge23" vertex="1" connectable="0">
          <mxGeometry x="54" y="1449" as="geometry" />
        </mxCell>
        <mxCell id="edge12" value="" style="html=1;rounded=1;edgeStyle=orthogonalEdgeStyle;dashed=0;startArrow=diamondThinstartSize=12;endArrow=openThin;endSize=12;strokeColor=#595959;exitX=0.250;exitY=0.000;exitDx=0;exitDy=0;entryX=0.250;entryY=1.000;entryDx=0;entryDy=0;" parent="1" source="node32" target="node13" edge="1">
          <mxGeometry width="50" height="50" relative="1" as="geometry">
            <Array as="points">
              <mxPoint x="1307" y="4099" />
              <mxPoint x="1314" y="4099" />
              <mxPoint x="1314" y="3519" />
              <mxPoint x="1558" y="3519" />
            </Array>
          </mxGeometry>
        </mxCell>
        <mxCell id="label72" value="1" style="edgeLabel;resizable=0;html=1;align=left;verticalAlign=top;strokeColor=default;" parent="edge12" vertex="1" connectable="0">
          <mxGeometry x="1296" y="4113" as="geometry" />
        </mxCell>
        <mxCell id="label76" value="1" style="edgeLabel;resizable=0;html=1;align=left;verticalAlign=top;strokeColor=default;" parent="edge12" vertex="1" connectable="0">
          <mxGeometry x="1512" y="3499" as="geometry" />
        </mxCell>
        <mxCell id="label77" value="post" style="edgeLabel;resizable=0;html=1;align=left;verticalAlign=top;strokeColor=default;" parent="edge12" vertex="1" connectable="0">
          <mxGeometry x="1558" y="3494" as="geometry" />
        </mxCell>
        <mxCell id="edge19" value="" style="html=1;rounded=1;edgeStyle=orthogonalEdgeStyle;dashed=0;startArrow=diamondThinstartSize=12;endArrow=openThin;endSize=12;strokeColor=#595959;exitX=0.500;exitY=0.000;exitDx=0;exitDy=0;entryX=0.500;entryY=1.000;entryDx=0;entryDy=0;" parent="1" source="node16" target="node25" edge="1">
          <mxGeometry width="50" height="50" relative="1" as="geometry">
            <Array as="points">
              <mxPoint x="1694" y="5759" />
              <mxPoint x="1754" y="5759" />
            </Array>
          </mxGeometry>
        </mxCell>
        <mxCell id="label114" value="1" style="edgeLabel;resizable=0;html=1;align=left;verticalAlign=top;strokeColor=default;" parent="edge19" vertex="1" connectable="0">
          <mxGeometry x="1683" y="5761" as="geometry" />
        </mxCell>
        <mxCell id="label118" value="1" style="edgeLabel;resizable=0;html=1;align=left;verticalAlign=top;strokeColor=default;" parent="edge19" vertex="1" connectable="0">
          <mxGeometry x="1743" y="5257" as="geometry" />
        </mxCell>
        <mxCell id="label119" value="service" style="edgeLabel;resizable=0;html=1;align=left;verticalAlign=top;strokeColor=default;" parent="edge19" vertex="1" connectable="0">
          <mxGeometry x="1754" y="5257" as="geometry" />
        </mxCell>
        <mxCell id="edge5" value="" style="html=1;rounded=1;edgeStyle=orthogonalEdgeStyle;dashed=0;startArrow=diamondThinstartSize=12;endArrow=openThin;endSize=12;strokeColor=#595959;exitX=0.500;exitY=0.000;exitDx=0;exitDy=0;entryX=0.500;entryY=1.000;entryDx=0;entryDy=0;" parent="1" source="node6" target="node26" edge="1">
          <mxGeometry width="50" height="50" relative="1" as="geometry">
            <Array as="points">
              <mxPoint x="1614" y="1499" />
              <mxPoint x="54" y="1499" />
            </Array>
          </mxGeometry>
        </mxCell>
        <mxCell id="label30" value="1" style="edgeLabel;resizable=0;html=1;align=left;verticalAlign=top;strokeColor=default;" parent="edge5" vertex="1" connectable="0">
          <mxGeometry x="1603" y="1507" as="geometry" />
        </mxCell>
        <mxCell id="label34" value="1" style="edgeLabel;resizable=0;html=1;align=left;verticalAlign=top;strokeColor=default;" parent="edge5" vertex="1" connectable="0">
          <mxGeometry x="205" y="1479" as="geometry" />
        </mxCell>
        <mxCell id="label35" value="user" style="edgeLabel;resizable=0;html=1;align=left;verticalAlign=top;strokeColor=default;" parent="edge5" vertex="1" connectable="0">
          <mxGeometry x="196" y="1499" as="geometry" />
        </mxCell>
        <mxCell id="edge6" value="" style="html=1;rounded=1;edgeStyle=orthogonalEdgeStyle;dashed=0;startArrow=diamondThinstartSize=12;endArrow=openThin;endSize=12;strokeColor=#595959;exitX=0.750;exitY=1.000;exitDx=0;exitDy=0;entryX=0.750;entryY=0.000;entryDx=0;entryDy=0;" parent="1" source="node6" target="node13" edge="1">
          <mxGeometry width="50" height="50" relative="1" as="geometry">
            <Array as="points">
              <mxPoint x="1681" y="2719" />
              <mxPoint x="1710" y="2719" />
            </Array>
          </mxGeometry>
        </mxCell>
        <mxCell id="label36" value="1" style="edgeLabel;resizable=0;html=1;align=left;verticalAlign=top;strokeColor=default;" parent="edge6" vertex="1" connectable="0">
          <mxGeometry x="1670" y="1989" as="geometry" />
        </mxCell>
        <mxCell id="label40" value="1" style="edgeLabel;resizable=0;html=1;align=left;verticalAlign=top;strokeColor=default;" parent="edge6" vertex="1" connectable="0">
          <mxGeometry x="1699" y="2725" as="geometry" />
        </mxCell>
        <mxCell id="label41" value="post" style="edgeLabel;resizable=0;html=1;align=left;verticalAlign=top;strokeColor=default;" parent="edge6" vertex="1" connectable="0">
          <mxGeometry x="1710" y="2725" as="geometry" />
        </mxCell>
        <mxCell id="edge25" value="" style="html=1;rounded=1;edgeStyle=orthogonalEdgeStyle;dashed=0;startArrow=diamondThinstartSize=12;endArrow=openThin;endSize=12;strokeColor=#595959;exitX=0.500;exitY=0.000;exitDx=0;exitDy=0;entryX=0.500;entryY=1.001;entryDx=0;entryDy=0;" parent="1" source="node25" target="node38" edge="1">
          <mxGeometry width="50" height="50" relative="1" as="geometry">
            <Array as="points">
              <mxPoint x="1754" y="4919" />
              <mxPoint x="1834" y="4919" />
              <mxPoint x="1834" y="4479" />
              <mxPoint x="2054" y="4479" />
              <mxPoint x="2054" y="4439" />
              <mxPoint x="2114" y="4439" />
            </Array>
          </mxGeometry>
        </mxCell>
        <mxCell id="label150" value="1" style="edgeLabel;resizable=0;html=1;align=left;verticalAlign=top;strokeColor=default;" parent="edge25" vertex="1" connectable="0">
          <mxGeometry x="1809" y="4899" as="geometry" />
        </mxCell>
        <mxCell id="label154" value="1" style="edgeLabel;resizable=0;html=1;align=left;verticalAlign=top;strokeColor=default;" parent="edge25" vertex="1" connectable="0">
          <mxGeometry x="2094" y="4419" as="geometry" />
        </mxCell>
        <mxCell id="label155" value="commentRepository" style="edgeLabel;resizable=0;html=1;align=left;verticalAlign=top;strokeColor=default;" parent="edge25" vertex="1" connectable="0">
          <mxGeometry x="2054" y="4449" as="geometry" />
        </mxCell>
        <mxCell id="edge20" value="" style="html=1;rounded=1;edgeStyle=orthogonalEdgeStyle;dashed=0;startArrow=diamondThinstartSize=12;endArrow=openThin;endSize=12;strokeColor=#595959;exitX=0.500;exitY=0.000;exitDx=0;exitDy=0;entryX=0.500;entryY=1.000;entryDx=0;entryDy=0;" parent="1" source="node25" target="node31" edge="1">
          <mxGeometry width="50" height="50" relative="1" as="geometry">
            <Array as="points">
              <mxPoint x="1754" y="4919" />
              <mxPoint x="1834" y="4919" />
              <mxPoint x="1834" y="4759" />
              <mxPoint x="434" y="4759" />
            </Array>
          </mxGeometry>
        </mxCell>
        <mxCell id="label120" value="1" style="edgeLabel;resizable=0;html=1;align=left;verticalAlign=top;strokeColor=default;" parent="edge20" vertex="1" connectable="0">
          <mxGeometry x="1775" y="4899" as="geometry" />
        </mxCell>
        <mxCell id="label124" value="1" style="edgeLabel;resizable=0;html=1;align=left;verticalAlign=top;strokeColor=default;" parent="edge20" vertex="1" connectable="0">
          <mxGeometry x="423" y="4646" as="geometry" />
        </mxCell>
        <mxCell id="label125" value="jwtService" style="edgeLabel;resizable=0;html=1;align=left;verticalAlign=top;strokeColor=default;" parent="edge20" vertex="1" connectable="0">
          <mxGeometry x="434" y="4557" as="geometry" />
        </mxCell>
        <mxCell id="edge14" value="" style="html=1;rounded=1;edgeStyle=orthogonalEdgeStyle;dashed=0;startArrow=diamondThinstartSize=12;endArrow=openThin;endSize=12;strokeColor=#595959;exitX=0.500;exitY=0.000;exitDx=0;exitDy=0;entryX=0.500;entryY=1.001;entryDx=0;entryDy=0;" parent="1" source="node25" target="node5" edge="1">
          <mxGeometry width="50" height="50" relative="1" as="geometry">
            <Array as="points">
              <mxPoint x="1754" y="4919" />
              <mxPoint x="1834" y="4919" />
              <mxPoint x="1834" y="4719" />
              <mxPoint x="1994" y="4719" />
            </Array>
          </mxGeometry>
        </mxCell>
        <mxCell id="label84" value="1" style="edgeLabel;resizable=0;html=1;align=left;verticalAlign=top;strokeColor=default;" parent="edge14" vertex="1" connectable="0">
          <mxGeometry x="1823" y="4876" as="geometry" />
        </mxCell>
        <mxCell id="label88" value="1" style="edgeLabel;resizable=0;html=1;align=left;verticalAlign=top;strokeColor=default;" parent="edge14" vertex="1" connectable="0">
          <mxGeometry x="1983" y="3858" as="geometry" />
        </mxCell>
        <mxCell id="label89" value="likeRepository" style="edgeLabel;resizable=0;html=1;align=left;verticalAlign=top;strokeColor=default;" parent="edge14" vertex="1" connectable="0">
          <mxGeometry x="1994" y="3858" as="geometry" />
        </mxCell>
        <mxCell id="edge28" value="" style="html=1;rounded=1;edgeStyle=orthogonalEdgeStyle;dashed=0;startArrow=diamondThinstartSize=12;endArrow=openThin;endSize=12;strokeColor=#595959;exitX=0.500;exitY=0.000;exitDx=0;exitDy=0;entryX=0.500;entryY=1.000;entryDx=0;entryDy=0;" parent="1" source="node25" target="node36" edge="1">
          <mxGeometry width="50" height="50" relative="1" as="geometry">
            <Array as="points">
              <mxPoint x="1754" y="4919" />
              <mxPoint x="1834" y="4919" />
            </Array>
          </mxGeometry>
        </mxCell>
        <mxCell id="label168" value="1" style="edgeLabel;resizable=0;html=1;align=left;verticalAlign=top;strokeColor=default;" parent="edge28" vertex="1" connectable="0">
          <mxGeometry x="1823" y="4909" as="geometry" />
        </mxCell>
        <mxCell id="label172" value="1" style="edgeLabel;resizable=0;html=1;align=left;verticalAlign=top;strokeColor=default;" parent="edge28" vertex="1" connectable="0">
          <mxGeometry x="1823" y="4460" as="geometry" />
        </mxCell>
        <mxCell id="label173" value="postRepository" style="edgeLabel;resizable=0;html=1;align=left;verticalAlign=top;strokeColor=default;" parent="edge28" vertex="1" connectable="0">
          <mxGeometry x="1834" y="4460" as="geometry" />
        </mxCell>
        <mxCell id="edge7" value="" style="html=1;rounded=1;edgeStyle=orthogonalEdgeStyle;dashed=0;startArrow=diamondThinstartSize=12;endArrow=openThin;endSize=12;strokeColor=#595959;exitX=0.500;exitY=0.000;exitDx=0;exitDy=0;entryX=0.500;entryY=1.001;entryDx=0;entryDy=0;" parent="1" source="node25" target="node19" edge="1">
          <mxGeometry width="50" height="50" relative="1" as="geometry">
            <Array as="points">
              <mxPoint x="1754" y="4919" />
              <mxPoint x="1834" y="4919" />
              <mxPoint x="1834" y="4739" />
              <mxPoint x="1454" y="4739" />
              <mxPoint x="1454" y="4679" />
              <mxPoint x="1634" y="4679" />
            </Array>
          </mxGeometry>
        </mxCell>
        <mxCell id="label42" value="1" style="edgeLabel;resizable=0;html=1;align=left;verticalAlign=top;strokeColor=default;" parent="edge7" vertex="1" connectable="0">
          <mxGeometry x="1743" y="4909" as="geometry" />
        </mxCell>
        <mxCell id="label46" value="1" style="edgeLabel;resizable=0;html=1;align=left;verticalAlign=top;strokeColor=default;" parent="edge7" vertex="1" connectable="0">
          <mxGeometry x="1623" y="3888" as="geometry" />
        </mxCell>
        <mxCell id="label47" value="userRepository" style="edgeLabel;resizable=0;html=1;align=left;verticalAlign=top;strokeColor=default;" parent="edge7" vertex="1" connectable="0">
          <mxGeometry x="1674" y="3873" as="geometry" />
        </mxCell>
        <mxCell id="edge22" value="" style="html=1;rounded=1;edgeStyle=orthogonalEdgeStyle;dashed=0;startArrow=diamondThinstartSize=12;endArrow=openThin;endSize=12;strokeColor=#595959;exitX=0.500;exitY=0.000;exitDx=0;exitDy=0;entryX=0.500;entryY=1.000;entryDx=0;entryDy=0;" parent="1" source="node43" target="node0" edge="1">
          <mxGeometry width="50" height="50" relative="1" as="geometry">
            <Array as="points">
              <mxPoint x="2274" y="4739" />
              <mxPoint x="2294" y="4739" />
            </Array>
          </mxGeometry>
        </mxCell>
        <mxCell id="label132" value="1" style="edgeLabel;resizable=0;html=1;align=left;verticalAlign=top;strokeColor=default;" parent="edge22" vertex="1" connectable="0">
          <mxGeometry x="2263" y="4741" as="geometry" />
        </mxCell>
        <mxCell id="label136" value="*" style="edgeLabel;resizable=0;html=1;align=left;verticalAlign=top;strokeColor=default;" parent="edge22" vertex="1" connectable="0">
          <mxGeometry x="2285" y="4105" as="geometry" />
        </mxCell>
        <mxCell id="label137" value="comments" style="edgeLabel;resizable=0;html=1;align=left;verticalAlign=top;strokeColor=default;" parent="edge22" vertex="1" connectable="0">
          <mxGeometry x="2294" y="4105" as="geometry" />
        </mxCell>
        <mxCell id="edge33" value="" style="html=1;rounded=1;edgeStyle=orthogonalEdgeStyle;dashed=0;startArrow=diamondThinstartSize=12;endArrow=openThin;endSize=12;strokeColor=#595959;exitX=0.500;exitY=0.000;exitDx=0;exitDy=0;entryX=0.500;entryY=1.000;entryDx=0;entryDy=0;" parent="1" source="node1" target="node44" edge="1">
          <mxGeometry width="50" height="50" relative="1" as="geometry">
            <Array as="points">
              <mxPoint x="474" y="5759" />
              <mxPoint x="374" y="5759" />
            </Array>
          </mxGeometry>
        </mxCell>
        <mxCell id="label198" value="1" style="edgeLabel;resizable=0;html=1;align=left;verticalAlign=top;strokeColor=default;" parent="edge33" vertex="1" connectable="0">
          <mxGeometry x="463" y="5769" as="geometry" />
        </mxCell>
        <mxCell id="label202" value="1" style="edgeLabel;resizable=0;html=1;align=left;verticalAlign=top;strokeColor=default;" parent="edge33" vertex="1" connectable="0">
          <mxGeometry x="363" y="5653" as="geometry" />
        </mxCell>
        <mxCell id="label203" value="jwtAuthFilter" style="edgeLabel;resizable=0;html=1;align=left;verticalAlign=top;strokeColor=default;" parent="edge33" vertex="1" connectable="0">
          <mxGeometry x="374" y="5653" as="geometry" />
        </mxCell>
        <mxCell id="edge16" value="" style="html=1;rounded=1;edgeStyle=orthogonalEdgeStyle;dashed=0;startArrow=diamondThinstartSize=12;endArrow=openThin;endSize=12;strokeColor=#595959;exitX=0.500;exitY=0.000;exitDx=0;exitDy=0;entryX=0.500;entryY=1.000;entryDx=0;entryDy=0;" parent="1" source="node26" target="node41" edge="1">
          <mxGeometry width="50" height="50" relative="1" as="geometry">
            <Array as="points" />
          </mxGeometry>
        </mxCell>
        <mxCell id="label96" value="1" style="edgeLabel;resizable=0;html=1;align=left;verticalAlign=top;strokeColor=default;" parent="edge16" vertex="1" connectable="0">
          <mxGeometry x="43" y="369" as="geometry" />
        </mxCell>
        <mxCell id="label100" value="1" style="edgeLabel;resizable=0;html=1;align=left;verticalAlign=top;strokeColor=default;" parent="edge16" vertex="1" connectable="0">
          <mxGeometry x="43" y="297" as="geometry" />
        </mxCell>
        <mxCell id="label101" value="role" style="edgeLabel;resizable=0;html=1;align=left;verticalAlign=top;strokeColor=default;" parent="edge16" vertex="1" connectable="0">
          <mxGeometry x="54" y="297" as="geometry" />
        </mxCell>
        <mxCell id="edge0" value="" style="html=1;rounded=1;edgeStyle=orthogonalEdgeStyle;dashed=0;startArrow=diamondThinstartSize=12;endArrow=openThin;endSize=12;strokeColor=#595959;exitX=0.500;exitY=0.000;exitDx=0;exitDy=0;entryX=0.500;entryY=1.000;entryDx=0;entryDy=0;" parent="1" source="node15" target="node33" edge="1">
          <mxGeometry width="50" height="50" relative="1" as="geometry">
            <Array as="points">
              <mxPoint x="754" y="5779" />
              <mxPoint x="634" y="5779" />
            </Array>
          </mxGeometry>
        </mxCell>
        <mxCell id="label0" value="1" style="edgeLabel;resizable=0;html=1;align=left;verticalAlign=top;strokeColor=default;" parent="edge0" vertex="1" connectable="0">
          <mxGeometry x="743" y="5966" as="geometry" />
        </mxCell>
        <mxCell id="label4" value="1" style="edgeLabel;resizable=0;html=1;align=left;verticalAlign=top;strokeColor=default;" parent="edge0" vertex="1" connectable="0">
          <mxGeometry x="623" y="5209" as="geometry" />
        </mxCell>
        <mxCell id="label5" value="service" style="edgeLabel;resizable=0;html=1;align=left;verticalAlign=top;strokeColor=default;" parent="edge0" vertex="1" connectable="0">
          <mxGeometry x="634" y="5209" as="geometry" />
        </mxCell>
        <mxCell id="edge13" value="" style="html=1;rounded=1;edgeStyle=orthogonalEdgeStyle;dashed=0;startArrow=diamondThinstartSize=12;endArrow=openThin;endSize=12;strokeColor=#595959;exitX=0.500;exitY=0.000;exitDx=0;exitDy=0;entryX=0.500;entryY=1.000;entryDx=0;entryDy=0;" parent="1" source="node21" target="node26" edge="1">
          <mxGeometry width="50" height="50" relative="1" as="geometry">
            <Array as="points">
              <mxPoint x="534" y="1499" />
              <mxPoint x="54" y="1499" />
            </Array>
          </mxGeometry>
        </mxCell>
        <mxCell id="label78" value="1" style="edgeLabel;resizable=0;html=1;align=left;verticalAlign=top;strokeColor=default;" parent="edge13" vertex="1" connectable="0">
          <mxGeometry x="523" y="2001" as="geometry" />
        </mxCell>
        <mxCell id="label82" value="1" style="edgeLabel;resizable=0;html=1;align=left;verticalAlign=top;strokeColor=default;" parent="edge13" vertex="1" connectable="0">
          <mxGeometry x="192" y="1479" as="geometry" />
        </mxCell>
        <mxCell id="label83" value="follower" style="edgeLabel;resizable=0;html=1;align=left;verticalAlign=top;strokeColor=default;" parent="edge13" vertex="1" connectable="0">
          <mxGeometry x="127" y="1499" as="geometry" />
        </mxCell>
        <mxCell id="edge1" value="" style="html=1;rounded=1;edgeStyle=orthogonalEdgeStyle;dashed=0;startArrow=diamondThinstartSize=12;endArrow=openThin;endSize=12;strokeColor=#595959;exitX=0.500;exitY=0.000;exitDx=0;exitDy=0;entryX=0.500;entryY=1.000;entryDx=0;entryDy=0;" parent="1" source="node42" target="node21" edge="1">
          <mxGeometry width="50" height="50" relative="1" as="geometry">
            <Array as="points" />
          </mxGeometry>
        </mxCell>
        <mxCell id="label6" value="1" style="edgeLabel;resizable=0;html=1;align=left;verticalAlign=top;strokeColor=default;" parent="edge1" vertex="1" connectable="0">
          <mxGeometry x="523" y="2923" as="geometry" />
        </mxCell>
        <mxCell id="label10" value="1" style="edgeLabel;resizable=0;html=1;align=left;verticalAlign=top;strokeColor=default;" parent="edge1" vertex="1" connectable="0">
          <mxGeometry x="523" y="2343" as="geometry" />
        </mxCell>
        <mxCell id="label11" value="id" style="edgeLabel;resizable=0;html=1;align=left;verticalAlign=top;strokeColor=default;" parent="edge1" vertex="1" connectable="0">
          <mxGeometry x="534" y="2343" as="geometry" />
        </mxCell>
        <mxCell id="edge34" value="" style="html=1;rounded=1;edgeStyle=orthogonalEdgeStyle;dashed=0;startArrow=diamondThinstartSize=12;endArrow=openThin;endSize=12;strokeColor=#595959;exitX=0.750;exitY=1.000;exitDx=0;exitDy=0;entryX=0.750;entryY=0.000;entryDx=0;entryDy=0;" parent="1" source="node13" target="node32" edge="1">
          <mxGeometry width="50" height="50" relative="1" as="geometry">
            <Array as="points">
              <mxPoint x="1710" y="3779" />
              <mxPoint x="1441" y="3779" />
            </Array>
          </mxGeometry>
        </mxCell>
        <mxCell id="label204" value="1" style="edgeLabel;resizable=0;html=1;align=left;verticalAlign=top;strokeColor=default;" parent="edge34" vertex="1" connectable="0">
          <mxGeometry x="1699" y="3493" as="geometry" />
        </mxCell>
        <mxCell id="label208" value="*" style="edgeLabel;resizable=0;html=1;align=left;verticalAlign=top;strokeColor=default;" parent="edge34" vertex="1" connectable="0">
          <mxGeometry x="1432" y="4113" as="geometry" />
        </mxCell>
        <mxCell id="label209" value="comments" style="edgeLabel;resizable=0;html=1;align=left;verticalAlign=top;strokeColor=default;" parent="edge34" vertex="1" connectable="0">
          <mxGeometry x="1441" y="4113" as="geometry" />
        </mxCell>
        <mxCell id="edge32" value="" style="html=1;rounded=1;edgeStyle=orthogonalEdgeStyle;dashed=0;startArrow=diamondThinstartSize=12;endArrow=openThin;endSize=12;strokeColor=#595959;exitX=0.250;exitY=0.000;exitDx=0;exitDy=0;entryX=0.250;entryY=1.000;entryDx=0;entryDy=0;" parent="1" source="node13" target="node6" edge="1">
          <mxGeometry width="50" height="50" relative="1" as="geometry">
            <Array as="points">
              <mxPoint x="1558" y="2719" />
              <mxPoint x="1554" y="2719" />
              <mxPoint x="1554" y="2379" />
              <mxPoint x="1547" y="2379" />
            </Array>
          </mxGeometry>
        </mxCell>
        <mxCell id="label192" value="1" style="edgeLabel;resizable=0;html=1;align=left;verticalAlign=top;strokeColor=default;" parent="edge32" vertex="1" connectable="0">
          <mxGeometry x="1547" y="2725" as="geometry" />
        </mxCell>
        <mxCell id="label196" value="*" style="edgeLabel;resizable=0;html=1;align=left;verticalAlign=top;strokeColor=default;" parent="edge32" vertex="1" connectable="0">
          <mxGeometry x="1538" y="1989" as="geometry" />
        </mxCell>
        <mxCell id="label197" value="likes" style="edgeLabel;resizable=0;html=1;align=left;verticalAlign=top;strokeColor=default;" parent="edge32" vertex="1" connectable="0">
          <mxGeometry x="1547" y="1989" as="geometry" />
        </mxCell>
        <mxCell id="edge10" value="" style="html=1;rounded=1;edgeStyle=orthogonalEdgeStyle;dashed=0;startArrow=diamondThinstartSize=12;endArrow=openThin;endSize=12;strokeColor=#595959;exitX=0.250;exitY=0.000;exitDx=0;exitDy=0;entryX=0.500;entryY=1.000;entryDx=0;entryDy=0;" parent="1" source="node13" target="node26" edge="1">
          <mxGeometry width="50" height="50" relative="1" as="geometry">
            <Array as="points">
              <mxPoint x="1558" y="2719" />
              <mxPoint x="1554" y="2719" />
              <mxPoint x="1554" y="2379" />
              <mxPoint x="1234" y="2379" />
              <mxPoint x="1234" y="1499" />
              <mxPoint x="54" y="1499" />
            </Array>
          </mxGeometry>
        </mxCell>
        <mxCell id="label60" value="1" style="edgeLabel;resizable=0;html=1;align=left;verticalAlign=top;strokeColor=default;" parent="edge10" vertex="1" connectable="0">
          <mxGeometry x="1553" y="2699" as="geometry" />
        </mxCell>
        <mxCell id="label64" value="1" style="edgeLabel;resizable=0;html=1;align=left;verticalAlign=top;strokeColor=default;" parent="edge10" vertex="1" connectable="0">
          <mxGeometry x="49" y="1479" as="geometry" />
        </mxCell>
        <mxCell id="label65" value="user" style="edgeLabel;resizable=0;html=1;align=left;verticalAlign=top;strokeColor=default;" parent="edge10" vertex="1" connectable="0">
          <mxGeometry x="40" y="1499" as="geometry" />
        </mxCell>
        <mxCell id="edge27" value="" style="html=1;rounded=1;edgeStyle=orthogonalEdgeStyle;dashed=0;startArrow=diamondThinstartSize=12;endArrow=openThin;endSize=12;strokeColor=#595959;exitX=0.500;exitY=0.000;exitDx=0;exitDy=0;entryX=0.500;entryY=1.001;entryDx=0;entryDy=0;" parent="1" source="node33" target="node23" edge="1">
          <mxGeometry width="50" height="50" relative="1" as="geometry">
            <Array as="points">
              <mxPoint x="634" y="4959" />
              <mxPoint x="434" y="4959" />
              <mxPoint x="434" y="4939" />
              <mxPoint x="194" y="4939" />
            </Array>
          </mxGeometry>
        </mxCell>
        <mxCell id="label162" value="1" style="edgeLabel;resizable=0;html=1;align=left;verticalAlign=top;strokeColor=default;" parent="edge27" vertex="1" connectable="0">
          <mxGeometry x="462" y="4939" as="geometry" />
        </mxCell>
        <mxCell id="label166" value="1" style="edgeLabel;resizable=0;html=1;align=left;verticalAlign=top;strokeColor=default;" parent="edge27" vertex="1" connectable="0">
          <mxGeometry x="183" y="3858" as="geometry" />
        </mxCell>
        <mxCell id="label167" value="followerRepository" style="edgeLabel;resizable=0;html=1;align=left;verticalAlign=top;strokeColor=default;" parent="edge27" vertex="1" connectable="0">
          <mxGeometry x="194" y="3858" as="geometry" />
        </mxCell>
        <mxCell id="edge24" value="" style="html=1;rounded=1;edgeStyle=orthogonalEdgeStyle;dashed=0;startArrow=diamondThinstartSize=12;endArrow=openThin;endSize=12;strokeColor=#595959;exitX=0.500;exitY=0.000;exitDx=0;exitDy=0;entryX=0.500;entryY=1.000;entryDx=0;entryDy=0;" parent="1" source="node33" target="node31" edge="1">
          <mxGeometry width="50" height="50" relative="1" as="geometry">
            <Array as="points">
              <mxPoint x="634" y="4959" />
              <mxPoint x="434" y="4959" />
            </Array>
          </mxGeometry>
        </mxCell>
        <mxCell id="label144" value="1" style="edgeLabel;resizable=0;html=1;align=left;verticalAlign=top;strokeColor=default;" parent="edge24" vertex="1" connectable="0">
          <mxGeometry x="509" y="4939" as="geometry" />
        </mxCell>
        <mxCell id="label148" value="1" style="edgeLabel;resizable=0;html=1;align=left;verticalAlign=top;strokeColor=default;" parent="edge24" vertex="1" connectable="0">
          <mxGeometry x="423" y="4623" as="geometry" />
        </mxCell>
        <mxCell id="label149" value="jwtService" style="edgeLabel;resizable=0;html=1;align=left;verticalAlign=top;strokeColor=default;" parent="edge24" vertex="1" connectable="0">
          <mxGeometry x="434" y="4583" as="geometry" />
        </mxCell>
        <mxCell id="edge15" value="" style="html=1;rounded=1;edgeStyle=orthogonalEdgeStyle;dashed=0;startArrow=diamondThinstartSize=12;endArrow=openThin;endSize=12;strokeColor=#595959;exitX=0.500;exitY=0.000;exitDx=0;exitDy=0;entryX=0.500;entryY=1.001;entryDx=0;entryDy=0;" parent="1" source="node33" target="node19" edge="1">
          <mxGeometry width="50" height="50" relative="1" as="geometry">
            <Array as="points">
              <mxPoint x="634" y="4959" />
              <mxPoint x="434" y="4959" />
              <mxPoint x="434" y="4919" />
              <mxPoint x="1454" y="4919" />
              <mxPoint x="1454" y="4679" />
              <mxPoint x="1634" y="4679" />
            </Array>
          </mxGeometry>
        </mxCell>
        <mxCell id="label90" value="1" style="edgeLabel;resizable=0;html=1;align=left;verticalAlign=top;strokeColor=default;" parent="edge15" vertex="1" connectable="0">
          <mxGeometry x="684" y="4899" as="geometry" />
        </mxCell>
        <mxCell id="label94" value="1" style="edgeLabel;resizable=0;html=1;align=left;verticalAlign=top;strokeColor=default;" parent="edge15" vertex="1" connectable="0">
          <mxGeometry x="1623" y="3873" as="geometry" />
        </mxCell>
        <mxCell id="label95" value="userRepository" style="edgeLabel;resizable=0;html=1;align=left;verticalAlign=top;strokeColor=default;" parent="edge15" vertex="1" connectable="0">
          <mxGeometry x="1634" y="3873" as="geometry" />
        </mxCell>
        <mxCell id="edge26" value="" style="html=1;rounded=1;edgeStyle=orthogonalEdgeStyle;dashed=0;startArrow=diamondThinstartSize=12;endArrow=openThin;endSize=12;strokeColor=#595959;exitX=0.500;exitY=0.000;exitDx=0;exitDy=0;entryX=0.500;entryY=1.000;entryDx=0;entryDy=0;" parent="1" source="node30" target="node24" edge="1">
          <mxGeometry width="50" height="50" relative="1" as="geometry">
            <Array as="points">
              <mxPoint x="1154" y="4899" />
              <mxPoint x="914" y="4899" />
            </Array>
          </mxGeometry>
        </mxCell>
        <mxCell id="label156" value="1" style="edgeLabel;resizable=0;html=1;align=left;verticalAlign=top;strokeColor=default;" parent="edge26" vertex="1" connectable="0">
          <mxGeometry x="1143" y="4969" as="geometry" />
        </mxCell>
        <mxCell id="label160" value="1" style="edgeLabel;resizable=0;html=1;align=left;verticalAlign=top;strokeColor=default;" parent="edge26" vertex="1" connectable="0">
          <mxGeometry x="903" y="4473" as="geometry" />
        </mxCell>
        <mxCell id="label161" value="senderService" style="edgeLabel;resizable=0;html=1;align=left;verticalAlign=top;strokeColor=default;" parent="edge26" vertex="1" connectable="0">
          <mxGeometry x="914" y="4473" as="geometry" />
        </mxCell>
        <mxCell id="edge4" value="" style="html=1;rounded=1;edgeStyle=orthogonalEdgeStyle;dashed=0;startArrow=diamondThinstartSize=12;endArrow=openThin;endSize=12;strokeColor=#595959;exitX=0.500;exitY=0.000;exitDx=0;exitDy=0;entryX=0.500;entryY=1.001;entryDx=0;entryDy=0;" parent="1" source="node30" target="node19" edge="1">
          <mxGeometry width="50" height="50" relative="1" as="geometry">
            <Array as="points">
              <mxPoint x="1154" y="4979" />
              <mxPoint x="1454" y="4979" />
              <mxPoint x="1454" y="4679" />
              <mxPoint x="1634" y="4679" />
            </Array>
          </mxGeometry>
        </mxCell>
        <mxCell id="label24" value="1" style="edgeLabel;resizable=0;html=1;align=left;verticalAlign=top;strokeColor=default;" parent="edge4" vertex="1" connectable="0">
          <mxGeometry x="1349" y="4959" as="geometry" />
        </mxCell>
        <mxCell id="label28" value="1" style="edgeLabel;resizable=0;html=1;align=left;verticalAlign=top;strokeColor=default;" parent="edge4" vertex="1" connectable="0">
          <mxGeometry x="1583" y="3873" as="geometry" />
        </mxCell>
        <mxCell id="label29" value="userRepository" style="edgeLabel;resizable=0;html=1;align=left;verticalAlign=top;strokeColor=default;" parent="edge4" vertex="1" connectable="0">
          <mxGeometry x="1674" y="3888" as="geometry" />
        </mxCell>
      </root>
    </mxGraphModel>
  </diagram>
</mxfile>
